<svg xmlns="http://www.w3.org/2000/svg" viewBox="0 0 500 500"><g id="freepik--background-complete--inject-2"><rect x="416.78" y="398.49" width="33.12" height="0.25" style="fill:#ebebeb"></rect><rect x="322.53" y="401.21" width="8.69" height="0.25" style="fill:#ebebeb"></rect><rect x="396.59" y="389.21" width="19.19" height="0.25" style="fill:#ebebeb"></rect><rect x="52.46" y="390.89" width="43.19" height="0.25" style="fill:#ebebeb"></rect><rect x="104.56" y="390.89" width="6.33" height="0.25" style="fill:#ebebeb"></rect><rect x="131.47" y="395.11" width="93.68" height="0.25" style="fill:#ebebeb"></rect><path d="M238.4,337.8H45.3a5.71,5.71,0,0,1-5.71-5.71V60.66A5.71,5.71,0,0,1,45.3,55H238.4a5.71,5.71,0,0,1,5.71,5.71V332.09A5.71,5.71,0,0,1,238.4,337.8ZM45.3,55.2a5.47,5.47,0,0,0-5.46,5.46V332.09a5.47,5.47,0,0,0,5.46,5.46H238.4a5.47,5.47,0,0,0,5.46-5.46V60.66a5.47,5.47,0,0,0-5.46-5.46Z" style="fill:#ebebeb"></path><path d="M454.7,337.8H261.6a5.71,5.71,0,0,1-5.71-5.71V60.66A5.71,5.71,0,0,1,261.6,55H454.7a5.71,5.71,0,0,1,5.71,5.71V332.09A5.71,5.71,0,0,1,454.7,337.8ZM261.6,55.2a5.47,5.47,0,0,0-5.46,5.46V332.09a5.47,5.47,0,0,0,5.46,5.46H454.7a5.47,5.47,0,0,0,5.46-5.46V60.66a5.47,5.47,0,0,0-5.46-5.46Z" style="fill:#ebebeb"></path><rect y="382.4" width="500" height="0.25" style="fill:#ebebeb"></rect><polygon points="418.92 204.99 347.23 204.99 339 110.86 410.69 110.86 418.92 204.99" style="fill:#f5f5f5"></polygon><path d="M393.05,123H356.92a.93.93,0,0,1-.92-.84h0a.77.77,0,0,1,.77-.85H392.9a.94.94,0,0,1,.92.85h0A.75.75,0,0,1,393.05,123Z" style="fill:#e0e0e0"></path><path d="M405.19,169.05H361a.94.94,0,0,1-.92-.85h0a.77.77,0,0,1,.77-.85h44.25a1,1,0,0,1,.92.85h0A.77.77,0,0,1,405.19,169.05Z" style="fill:#e0e0e0"></path><path d="M405.62,174H355.1a.94.94,0,0,1-.92-.85h0a.77.77,0,0,1,.77-.85h50.53a1,1,0,0,1,.92.85h0A.77.77,0,0,1,405.62,174Z" style="fill:#e0e0e0"></path><path d="M406.06,178.89H355.53a.94.94,0,0,1-.92-.85h0a.77.77,0,0,1,.77-.85h50.53a1,1,0,0,1,.92.85h0A.77.77,0,0,1,406.06,178.89Z" style="fill:#e0e0e0"></path><path d="M406.49,183.81H356A1,1,0,0,1,355,183h0a.77.77,0,0,1,.77-.85h50.53a.94.94,0,0,1,.92.85h0A.77.77,0,0,1,406.49,183.81Z" style="fill:#e0e0e0"></path><path d="M406.92,188.73H362.67a1,1,0,0,1-.92-.85h0a.77.77,0,0,1,.77-.85h44.25a.94.94,0,0,1,.92.85h0A.77.77,0,0,1,406.92,188.73Z" style="fill:#e0e0e0"></path><path d="M407.35,193.65H356.82a1,1,0,0,1-.92-.85h0a.76.76,0,0,1,.78-.84H407.2a.93.93,0,0,1,.92.84h0A.77.77,0,0,1,407.35,193.65Z" style="fill:#e0e0e0"></path><path d="M407.78,198.57H357.25a1,1,0,0,1-.92-.85h0a.76.76,0,0,1,.78-.84h50.52a.93.93,0,0,1,.92.84h0A.77.77,0,0,1,407.78,198.57Z" style="fill:#e0e0e0"></path><path d="M389.31,128.62H361.65a.94.94,0,0,1-.92-.85h0a.76.76,0,0,1,.77-.85h27.66a.94.94,0,0,1,.92.85h0A.76.76,0,0,1,389.31,128.62Z" style="fill:#e0e0e0"></path><path d="M385.28,134.24H366.66a.94.94,0,0,1-.92-.85h0a.75.75,0,0,1,.77-.84h18.63a.94.94,0,0,1,.92.84h0A.77.77,0,0,1,385.28,134.24Z" style="fill:#e0e0e0"></path><polygon points="405.32 160.82 353.1 160.82 351.35 140.78 403.57 140.78 405.32 160.82" style="fill:#e0e0e0;opacity:0.5"></polygon><polygon points="68.73 274.25 127.97 274.25 134.77 196.47 75.53 196.47 68.73 274.25" style="fill:#f5f5f5"></polygon><path d="M90.11,206.5H120a.79.79,0,0,0,.76-.7h0a.63.63,0,0,0-.64-.7H90.23a.77.77,0,0,0-.76.7h0A.63.63,0,0,0,90.11,206.5Z" style="fill:#e0e0e0"></path><path d="M80.07,244.55h36.56a.77.77,0,0,0,.76-.7h0a.63.63,0,0,0-.64-.7H80.2a.79.79,0,0,0-.77.7h0A.64.64,0,0,0,80.07,244.55Z" style="fill:#e0e0e0"></path><path d="M79.72,248.61h41.74a.77.77,0,0,0,.76-.7h0a.63.63,0,0,0-.64-.7H79.84a.78.78,0,0,0-.76.7h0A.63.63,0,0,0,79.72,248.61Z" style="fill:#e0e0e0"></path><path d="M79.36,252.68h41.75a.78.78,0,0,0,.76-.7h0a.63.63,0,0,0-.64-.7H79.48a.78.78,0,0,0-.76.7h0A.63.63,0,0,0,79.36,252.68Z" style="fill:#e0e0e0"></path><path d="M79,256.74h41.74a.77.77,0,0,0,.76-.7h0a.63.63,0,0,0-.64-.7H79.13a.78.78,0,0,0-.76.7h0A.63.63,0,0,0,79,256.74Z" style="fill:#e0e0e0"></path><path d="M78.65,260.81h36.56a.78.78,0,0,0,.76-.7h0a.63.63,0,0,0-.64-.7H78.77a.78.78,0,0,0-.76.7h0A.63.63,0,0,0,78.65,260.81Z" style="fill:#e0e0e0"></path><path d="M78.29,264.88H120a.78.78,0,0,0,.76-.7h0a.63.63,0,0,0-.64-.7H78.42a.77.77,0,0,0-.76.7h0A.63.63,0,0,0,78.29,264.88Z" style="fill:#e0e0e0"></path><path d="M77.94,268.94h41.74a.77.77,0,0,0,.76-.7h0a.62.62,0,0,0-.63-.7H78.06a.77.77,0,0,0-.76.7h0A.63.63,0,0,0,77.94,268.94Z" style="fill:#e0e0e0"></path><path d="M93.2,211.14h22.85a.77.77,0,0,0,.76-.7h0a.63.63,0,0,0-.63-.7H93.32a.78.78,0,0,0-.76.7h0A.63.63,0,0,0,93.2,211.14Z" style="fill:#e0e0e0"></path><path d="M96.52,215.79h15.4a.79.79,0,0,0,.76-.7h0a.64.64,0,0,0-.64-.7H96.65a.77.77,0,0,0-.76.7h0A.63.63,0,0,0,96.52,215.79Z" style="fill:#e0e0e0"></path><polygon points="79.97 237.75 123.11 237.75 124.56 221.19 81.42 221.19 79.97 237.75" style="fill:#e0e0e0;opacity:0.5"></polygon><polygon points="201 185.38 277.38 185.38 286.16 85.08 209.77 85.08 201 185.38" style="fill:#fafafa"></polygon><path d="M228.56,98h38.5a1,1,0,0,0,1-.9h0a.81.81,0,0,0-.82-.9h-38.5a1,1,0,0,0-1,.9h0A.81.81,0,0,0,228.56,98Z" style="fill:#e6e6e6"></path><path d="M215.62,147.08h47.14a1,1,0,0,0,1-.9h0a.82.82,0,0,0-.83-.9H215.78a1,1,0,0,0-1,.9h0A.81.81,0,0,0,215.62,147.08Z" style="fill:#e6e6e6"></path><path d="M215.17,152.33H269a1,1,0,0,0,1-.91h0a.82.82,0,0,0-.83-.9H215.32a1,1,0,0,0-1,.9h0A.83.83,0,0,0,215.17,152.33Z" style="fill:#e6e6e6"></path><path d="M214.71,157.57h53.83a1,1,0,0,0,1-.9h0a.82.82,0,0,0-.82-.91H214.86a1,1,0,0,0-1,.91h0A.82.82,0,0,0,214.71,157.57Z" style="fill:#e6e6e6"></path><path d="M214.25,162.81h53.83a1,1,0,0,0,1-.9h0a.81.81,0,0,0-.82-.9H214.41a1,1,0,0,0-1,.9h0A.82.82,0,0,0,214.25,162.81Z" style="fill:#e6e6e6"></path><path d="M213.79,168.05h47.14a1,1,0,0,0,1-.9h0a.81.81,0,0,0-.82-.9H214a1,1,0,0,0-1,.9h0A.8.8,0,0,0,213.79,168.05Z" style="fill:#e6e6e6"></path><path d="M213.33,173.3h53.83a1,1,0,0,0,1-.91h0a.8.8,0,0,0-.82-.9H213.49a1,1,0,0,0-1,.9h0A.81.81,0,0,0,213.33,173.3Z" style="fill:#e6e6e6"></path><path d="M212.87,178.54H266.7a1,1,0,0,0,1-.9h0a.81.81,0,0,0-.82-.91H213a1,1,0,0,0-1,.91h0A.81.81,0,0,0,212.87,178.54Z" style="fill:#e6e6e6"></path><path d="M232.55,104H262a1,1,0,0,0,1-.9h0a.8.8,0,0,0-.82-.9H232.71a1,1,0,0,0-1,.9h0A.8.8,0,0,0,232.55,104Z" style="fill:#e6e6e6"></path><path d="M236.84,110h19.85a1,1,0,0,0,1-.9h0a.82.82,0,0,0-.83-.9H237a1,1,0,0,0-1,.9h0A.82.82,0,0,0,236.84,110Z" style="fill:#e6e6e6"></path><polygon points="215.49 138.31 271.13 138.31 272.99 116.96 217.36 116.96 215.49 138.31" style="fill:#f0f0f0;opacity:0.5"></polygon><path d="M422.86,261.11c-.26,3-9.24,4.71-20,3.77s-19.35-4.17-19.08-7.19l1.15-13.21L424,247.9Z" style="fill:#ebebeb"></path><path d="M384.57,248.17c1.49,2.74,9.42,5.41,19.16,6.27s18-.4,20-2.84l.32-3.7-39.13-3.42Z" style="fill:#e0e0e0;opacity:0.6000000000000001"></path><path d="M403.63,253.1l-31.47-12.79a.74.74,0,0,1,.07-1.4l33.44-9.59a.72.72,0,0,1,.52,0l31.27,15.26a.74.74,0,0,1-.17,1.39l-33.22,7.13A.74.74,0,0,1,403.63,253.1Z" style="fill:#ebebeb"></path><rect x="98.12" y="312.7" width="42.25" height="6.5" style="fill:#f0f0f0"></rect><path d="M99.52,316.45H139a3.27,3.27,0,0,1,3.27,3.27v63.73h-46V319.72a3.26,3.26,0,0,1,3.27-3.27Z" style="fill:#e6e6e6"></path><rect x="96.25" y="304.7" width="46" height="10" rx="3.61" style="fill:#e6e6e6"></rect><polygon points="148.2 383.45 126.7 383.45 126.7 380.45 148.2 378.45 148.2 383.45" style="fill:#f5f5f5"></polygon></g><g id="freepik--Shadow--inject-2"><ellipse id="freepik--path--inject-2" cx="250" cy="415.69" rx="193.89" ry="11.32" style="fill:#f5f5f5"></ellipse></g><g id="freepik--graduation-cap--inject-2"><rect x="207.18" y="257.16" width="40.94" height="38.61" transform="translate(455.3 552.93) rotate(180)" style="fill:#263238"></rect><rect x="167.25" y="257.16" width="40.94" height="38.61" transform="translate(375.43 552.93) rotate(180)" style="fill:#263238"></rect><rect x="206.78" y="255.73" width="41.34" height="5.36" transform="translate(454.89 516.83) rotate(180)" style="fill:#263238"></rect><rect x="206.78" y="251.8" width="73.93" height="6.23" transform="translate(487.49 509.84) rotate(180)" style="fill:#263238"></rect><rect x="167.25" y="257.16" width="40.94" height="38.61" transform="translate(375.43 552.93) rotate(180)" style="opacity:0.2"></rect><rect x="206.78" y="255.73" width="41.34" height="5.36" transform="translate(454.89 516.83) rotate(180)" style="opacity:0.2"></rect><rect x="206.78" y="251.8" width="73.93" height="6.23" transform="translate(487.49 509.84) rotate(180)" style="opacity:0.2"></rect><rect x="134.66" y="251.8" width="73.93" height="6.23" transform="translate(343.24 509.84) rotate(180)" style="fill:#263238"></rect><path d="M134.66,317.6h0a1,1,0,0,0,1-1V256a3.23,3.23,0,0,1,3.23-3.24h68.7a1,1,0,0,0,1-1h0a1,1,0,0,0-1-1h-68.7a5.24,5.24,0,0,0-5.23,5.24V316.6A1,1,0,0,0,134.66,317.6Z" style="fill:#720CF7"></path><path d="M134.44,320.2c3.68,0,6.66,4.8,6.66,10.72v7.62h-3.3c-.36,0-2.38-.4-2.38-7.69,0,0-1.12,7.67.74,7.69h-2.81s-1.68-.32-1.68-4.38V328s-2.69,10.5,0,10.5h-3.9v-7.62C127.77,325,130.76,320.2,134.44,320.2Z" style="fill:#720CF7"></path><path d="M132.2,318.6h4.48a1,1,0,0,0,1-1h0a1,1,0,0,0-1-1H132.2a1,1,0,0,0-1,1h0A1,1,0,0,0,132.2,318.6Z" style="fill:#720CF7"></path><path d="M132.2,320.6h4.48a1,1,0,0,0,1-1h0a1,1,0,0,0-1-1H132.2a1,1,0,0,0-1,1h0A1,1,0,0,0,132.2,320.6Z" style="fill:#720CF7"></path></g><g id="freepik--Books--inject-2"><path d="M344.5,374.88H162.28v38H344.56A149.17,149.17,0,0,1,344.5,374.88Z" style="fill:#720CF7"></path><path d="M344.5,374.88H162.28v38H344.56A149.17,149.17,0,0,1,344.5,374.88Z" style="fill:#fff;opacity:0.7000000000000001"></path><path d="M195.48,414.88H138.21l-.58-.59a29.2,29.2,0,0,1,0-41.31l.58-.58h57.27l-3.41,3.41a25.22,25.22,0,0,0,0,35.65Z" style="fill:#720CF7"></path><g style="opacity:0.30000000000000004"><path d="M195.48,414.88H138.21l-.58-.59a29.2,29.2,0,0,1,0-41.31l.58-.58h57.27l-3.41,3.41a25.22,25.22,0,0,0,0,35.65Z"></path></g><path d="M346.37,414.88H191.69l-.17-.17a30.06,30.06,0,0,1-9-20A29.08,29.08,0,0,1,191.1,373l.59-.58H346.37a2,2,0,0,1,2,2h0a2,2,0,0,1-2,2h-153a25.23,25.23,0,0,0,0,34.48h153a2,2,0,0,1,2,2h0A2,2,0,0,1,346.37,414.88Z" style="fill:#720CF7"></path><path d="M330.2,389h-8.75a1.5,1.5,0,0,1-1.5-1.5h0a1.5,1.5,0,0,1,1.5-1.5h8.75a1.5,1.5,0,0,1,1.5,1.5h0A1.5,1.5,0,0,1,330.2,389Z" style="fill:#fff"></path><path d="M310,389H228.7a1.5,1.5,0,0,1-1.5-1.5h0a1.5,1.5,0,0,1,1.5-1.5H310a1.5,1.5,0,0,1,1.5,1.5h0A1.5,1.5,0,0,1,310,389Z" style="fill:#fff"></path><path d="M217.7,389h-18a1.5,1.5,0,0,1-1.5-1.5h0a1.5,1.5,0,0,1,1.5-1.5h18a1.5,1.5,0,0,1,1.5,1.5h0A1.5,1.5,0,0,1,217.7,389Z" style="fill:#fff"></path><path d="M330.2,401.71h-77a1.5,1.5,0,0,1-1.5-1.5h0a1.5,1.5,0,0,1,1.5-1.5h77a1.5,1.5,0,0,1,1.5,1.5h0A1.5,1.5,0,0,1,330.2,401.71Z" style="fill:#fff"></path><path d="M242,401.71H199.7a1.5,1.5,0,0,1-1.5-1.5h0a1.5,1.5,0,0,1,1.5-1.5H242a1.5,1.5,0,0,1,1.5,1.5h0A1.5,1.5,0,0,1,242,401.71Z" style="fill:#fff"></path><path d="M339.67,298.17h-164v34.2H339.73A134.07,134.07,0,0,1,339.67,298.17Z" style="fill:#720CF7"></path><path d="M339.67,298.17h-164v34.2H339.73A134.07,134.07,0,0,1,339.67,298.17Z" style="fill:#fff;opacity:0.8"></path><path d="M205.55,334.17H154l-.53-.53a26.28,26.28,0,0,1,0-37.17l.53-.53h51.54L202.48,299a22.71,22.71,0,0,0,0,32.09Z" style="fill:#720CF7"></path><g style="opacity:0.2"><path d="M205.55,334.17H154l-.53-.53a26.28,26.28,0,0,1,0-37.17l.53-.53h51.54L202.48,299a22.71,22.71,0,0,0,0,32.09Z" style="fill:#fff"></path></g><path d="M341.35,334.17H202.14L202,334a27,27,0,0,1-8.06-18,26.1,26.1,0,0,1,7.68-19.53l.53-.53H341.35a1.8,1.8,0,0,1,1.8,1.8h0a1.8,1.8,0,0,1-1.8,1.8H203.64a22.7,22.7,0,0,0,0,31H341.35a1.8,1.8,0,0,1,1.8,1.8h0A1.8,1.8,0,0,1,341.35,334.17Z" style="fill:#720CF7"></path><g style="opacity:0.4"><path d="M341.35,334.17H202.14L202,334a27,27,0,0,1-8.06-18,26.1,26.1,0,0,1,7.68-19.53l.53-.53H341.35a1.8,1.8,0,0,1,1.8,1.8h0a1.8,1.8,0,0,1-1.8,1.8H203.64a22.7,22.7,0,0,0,0,31H341.35a1.8,1.8,0,0,1,1.8,1.8h0A1.8,1.8,0,0,1,341.35,334.17Z" style="fill:#fff"></path></g><path d="M326.8,310.92h-7.88a1.35,1.35,0,0,1-1.35-1.35h0a1.35,1.35,0,0,1,1.35-1.35h7.88a1.35,1.35,0,0,1,1.35,1.35h0A1.35,1.35,0,0,1,326.8,310.92Z" style="fill:#fff"></path><path d="M308.57,310.92H235.45a1.34,1.34,0,0,1-1.35-1.35h0a1.34,1.34,0,0,1,1.35-1.35h73.12a1.34,1.34,0,0,1,1.35,1.35h0A1.34,1.34,0,0,1,308.57,310.92Z" style="fill:#fff"></path><path d="M225.55,310.92h-16.2a1.34,1.34,0,0,1-1.35-1.35h0a1.34,1.34,0,0,1,1.35-1.35h16.2a1.34,1.34,0,0,1,1.35,1.35h0A1.34,1.34,0,0,1,225.55,310.92Z" style="fill:#fff"></path><path d="M326.8,322.32H257.5a1.34,1.34,0,0,1-1.35-1.35h0a1.34,1.34,0,0,1,1.35-1.35h69.3a1.35,1.35,0,0,1,1.35,1.35h0A1.35,1.35,0,0,1,326.8,322.32Z" style="fill:#fff"></path><path d="M247.37,322.32h-38A1.34,1.34,0,0,1,208,321h0a1.34,1.34,0,0,1,1.35-1.35h38a1.34,1.34,0,0,1,1.35,1.35h0A1.34,1.34,0,0,1,247.37,322.32Z" style="fill:#fff"></path><path d="M345.44,336.4h-164v34.2H345.5A134.07,134.07,0,0,1,345.44,336.4Z" style="fill:#720CF7"></path><path d="M345.44,336.4h-164v34.2H345.5A134.07,134.07,0,0,1,345.44,336.4Z" style="fill:#fff;opacity:0.7000000000000001"></path><path d="M211.33,372.4H159.78l-.52-.53a26.28,26.28,0,0,1,0-37.17l.52-.53h51.55l-3.07,3.07a22.68,22.68,0,0,0,0,32.09Z" style="fill:#720CF7"></path><path d="M347.13,372.4H207.91l-.15-.15a27,27,0,0,1-8.06-18,26.16,26.16,0,0,1,7.68-19.53l.53-.53H347.13a1.81,1.81,0,0,1,1.8,1.8h0a1.81,1.81,0,0,1-1.8,1.8H209.42a22.67,22.67,0,0,0,0,31H347.13a1.8,1.8,0,0,1,1.8,1.8h0A1.81,1.81,0,0,1,347.13,372.4Z" style="fill:#720CF7"></path><g style="opacity:0.30000000000000004"><path d="M347.13,372.4H207.91l-.15-.15a27,27,0,0,1-8.06-18,26.16,26.16,0,0,1,7.68-19.53l.53-.53H347.13a1.81,1.81,0,0,1,1.8,1.8h0a1.81,1.81,0,0,1-1.8,1.8H209.42a22.67,22.67,0,0,0,0,31H347.13a1.8,1.8,0,0,1,1.8,1.8h0A1.81,1.81,0,0,1,347.13,372.4Z" style="fill:#fff"></path></g><path d="M215.12,357.85H223a1.35,1.35,0,0,1,1.35,1.35h0a1.36,1.36,0,0,1-1.35,1.35h-7.88a1.36,1.36,0,0,1-1.35-1.35h0A1.35,1.35,0,0,1,215.12,357.85Z" style="fill:#fff"></path><path d="M233.35,357.85h73.12a1.34,1.34,0,0,1,1.35,1.35h0a1.35,1.35,0,0,1-1.35,1.35H233.35A1.35,1.35,0,0,1,232,359.2h0A1.34,1.34,0,0,1,233.35,357.85Z" style="fill:#fff"></path><path d="M316.37,357.85h16.2a1.34,1.34,0,0,1,1.35,1.35h0a1.35,1.35,0,0,1-1.35,1.35h-16.2A1.36,1.36,0,0,1,315,359.2h0A1.35,1.35,0,0,1,316.37,357.85Z" style="fill:#fff"></path><path d="M215.12,346.45h69.3a1.34,1.34,0,0,1,1.35,1.35h0a1.35,1.35,0,0,1-1.35,1.35h-69.3a1.36,1.36,0,0,1-1.35-1.35h0A1.35,1.35,0,0,1,215.12,346.45Z" style="fill:#fff"></path><path d="M294.55,346.45h38a1.34,1.34,0,0,1,1.35,1.35h0a1.35,1.35,0,0,1-1.35,1.35h-38a1.35,1.35,0,0,1-1.35-1.35h0A1.34,1.34,0,0,1,294.55,346.45Z" style="fill:#fff"></path></g><g id="freepik--Character--inject-2"><path d="M317.41,285c.12-4.24,5.4-5.75,5.4-5.75s-.15-.41-.32-1c0,0,.48.6,3.17-.65s3.62-1.72,3.62-1.72a24.41,24.41,0,0,0-5,1.56,1.56,1.56,0,0,1-2.21-.7c-.21-.47-.53-3.08.74-1.89,2.27,2.12,15.44-5.88,19.89-.75s-3.54,6.46-3.54,6.46c-7.88,2.22-12.63,8.41-14.72,11.79-.86,1.38-1.76.34-1.93-.11-.54-1.44-.21-2.14,2.72-5.52,0,0-1.71.82-3.37,4.1-.45-1-.92-1.74-1.58-.72s-1.56,1.11-2,.19c-.08-.19-.37-1.77,2.21-4.88a4.44,4.44,0,0,0-2.84,3.11A15.26,15.26,0,0,1,317.41,285Z" style="fill:#263238"></path><path d="M341.27,280s1.14-4.68-5.86-2.35-2.78,5.1-2.78,5.1Z" style="fill:#720CF7"></path><path d="M341.27,280s1.14-4.68-5.86-2.35-2.78,5.1-2.78,5.1Z" style="opacity:0.2"></path><path d="M343.25,281.94s1.38-5.65-7.08-2.84-3.36,6.17-3.36,6.17Z" style="fill:#720CF7"></path><path d="M340.18,317.67s2.44-5.88-9.48-8.13-14.19.44-10.7,4.8l4.82,3.33,9.78,3.23,4.19-1.81Z" style="fill:#263238"></path><path d="M340.18,317.67s2.44-5.88-9.48-8.13-14.19.44-10.7,4.8l4.82,3.33,9.78,3.23,4.19-1.81Z" style="opacity:0.2"></path><path d="M297.93,357.54c-18.34,42.3,4.94,58.81,33.95,57.82s81.44-17.14,74.18-37.41c-5.83-16.3-53.36-9.05-68.19-5.6l-7.47-11.83Z" style="fill:#720CF7"></path><path d="M297.93,357.54c-18.34,42.3,4.94,58.81,33.95,57.82s81.44-17.14,74.18-37.41c-5.83-16.3-53.36-9.05-68.19-5.6l-7.47-11.83Z" style="isolation:isolate;opacity:0.2"></path><polygon points="368.57 405.17 355.01 408.06 349.46 409.24 347.99 402.97 353.72 400.93 365.66 396.68 368.57 405.17" style="fill:#eec1bb"></polygon><polygon points="368.57 405.17 355.01 408.06 353.72 400.93 365.66 396.68 368.57 405.17" style="isolation:isolate;opacity:0.2"></polygon><polygon points="354.37 399.72 358.26 397.57 360.56 409.38 357.13 409.13 354.37 399.72" style="fill:#720CF7"></polygon><polygon points="354.37 399.72 358.26 397.57 360.56 409.38 357.13 409.13 354.37 399.72" style="fill:#fff;opacity:0.30000000000000004"></polygon><path d="M337.88,372.35s62.32-9.05,59.22,2.53c-2.37,8.84-28.12,19.47-28.12,19.47-24-11.73-43.77-11.29-43.77-11.29Z" style="isolation:isolate;opacity:0.1"></path><path d="M299.59,346.19c1.64-10.05,4.41-24.05,7.89-30.05a6.9,6.9,0,0,1,2.31-2.63s1.4-.12,3.82-.12h.18a80.4,80.4,0,0,1,24.84,4.18,68.41,68.41,0,0,1,8.14,3.32s-3.45,20.89-7.36,25-9,14.65-9,14.65l-32.47-3S298.52,352.69,299.59,346.19Z" style="fill:#263238"></path><path d="M336,311.3a30,30,0,0,1,1.93-3.79l-8.66-5.46a19.06,19.06,0,0,1,0,2.39c-.19,3-1.24,8.16-5.87,10,0,0,2,7.67,8.38,8.32a4.44,4.44,0,0,0,1,0,4.11,4.11,0,0,0,3.42-4.7s-1.15-.51-1.21-2.51A10.81,10.81,0,0,1,336,311.3Z" style="fill:#eec1bb"></path><path d="M328.23,302.33a15.73,15.73,0,0,1,.24,2.37l0,.06s1.93,10.76,6.8,10.38a10.83,10.83,0,0,1,.54-4.3,31.74,31.74,0,0,1,1.54-4Z" style="isolation:isolate;opacity:0.2"></path><path d="M335.19,314.34c9.72,3.93,14.48-1.46,17-12.46,2-8.82.69-14.13-7.69-16.68C330.59,281,321.9,306.87,335.19,314.34Z" style="fill:#eec1bb"></path><path d="M345.52,306.84a2.37,2.37,0,0,0,2.49-.27,18.76,18.76,0,0,1-1.37-4.22Z" style="fill:#d58745"></path><path d="M341.83,299.27c.17-.61.59-1,1-1l0,0,1.67-.17a1.9,1.9,0,0,1-1.1.52,1.48,1.48,0,0,1,.12,1.16c-.2.69-.73,1.15-1.19,1S341.63,300,341.83,299.27Z" style="fill:#263238"></path><path d="M349.48,301.54c.17-.61.61-1,1-1l1.62-.17a1.91,1.91,0,0,1-1.1.51,1.47,1.47,0,0,1,.11,1.17c-.19.69-.72,1.15-1.18,1S349.29,302.23,349.48,301.54Z" style="fill:#263238"></path><path d="M341.43,294.84h0a.36.36,0,0,1,.34-.38,4.87,4.87,0,0,1,3.88,2,.36.36,0,0,1-.59.42,4.24,4.24,0,0,0-3.25-1.72.35.35,0,0,1-.2-.05A.33.33,0,0,1,341.43,294.84Z" style="fill:#263238"></path><path d="M353,298.69a3.6,3.6,0,0,0-3.19-.5h0a.39.39,0,0,1-.48-.2h0a.37.37,0,0,1,.19-.48,4.42,4.42,0,0,1,3.85.55l0,0a.34.34,0,0,1,.11.48.32.32,0,0,1-.19.15A.37.37,0,0,1,353,298.69Z" style="fill:#263238"></path><path d="M329.14,306.44c-5.52-8.55.84-29.64,15.14-24.91s8.11,19.19,8.11,19.19c2.49-9.88-1.63-11.36-6.44-12.64a7.44,7.44,0,0,0-8.44,3.56,10.87,10.87,0,0,1-6.47,4.88C327.31,300.09,329.18,306.44,329.14,306.44Z" style="fill:#263238"></path><path d="M343.23,309a2.79,2.79,0,0,1-2.78-2.37.21.21,0,0,1,.19-.24.22.22,0,0,1,.24.19,2.31,2.31,0,0,0,2.36,2,.24.24,0,0,1,.19.18.23.23,0,0,1-.19.26Z" style="fill:#2e353a"></path><path d="M342.48,335.18s2.85,19.09,4.76,22.76,13.91,16,13.91,16l3.2-1.66s-11.28-14.1-12.08-16.74S349,330.75,349,330.75Z" style="fill:#eec1bb"></path><path d="M340.54,333.6l1.47-8.31,4.74-4.39c3.54,1.88,4.19,12.84,4.34,17.3.13,3.87.22,12.75,1.74,16.65,1.72,4.4,11,15.38,11,15.38l-4.37,3.12s-11-9.25-14.11-16.37S340.54,333.6,340.54,333.6Z" style="fill:#263238"></path><path d="M348.76,410.66a.21.21,0,0,1,.2-.08.2.2,0,0,1,.17.13c0,.09,1.05,3.15.43,4.38a1,1,0,0,1-.57.46.74.74,0,0,1-.81-.15,3.42,3.42,0,0,1-.13-2.4A13.72,13.72,0,0,1,348.76,410.66Zm.57,3.86a8.76,8.76,0,0,0-.45-3.21c-.47,1.41-.85,3.36-.42,3.83.05.07.16.15.4.05a.55.55,0,0,0,.34-.31,2.06,2.06,0,0,0,.12-.35Z" style="fill:#720CF7"></path><path d="M348.79,410.62a.21.21,0,0,1,.19-.08c.09,0,2.14.66,2.75,1.81a1.42,1.42,0,0,1,.1,1.07c-.15.49-.44.61-.66.58-.87,0-2.17-2.21-2.39-3.23l0-.07A.2.2,0,0,1,348.79,410.62Zm2.71,2.59a1,1,0,0,0-.1-.68,4.44,4.44,0,0,0-2.18-1.51c.37,1,1.45,2.56,2,2.62.06,0,.19,0,.29-.33v-.1Z" style="fill:#720CF7"></path><path d="M349,411.77c-2.72,2-4.68,2.2-6.73,8.23-.45,1.29-3.93,0-3.25-3.15,1.14-5.25,1.44-4,2.35-8.49.81-3.78,1.19-6.52,1.75-9.58l.11-.25h0a1.14,1.14,0,0,1,1.52-.6l6.59,2.94a.69.69,0,0,1,.39.77l-1.7,8.45A2.77,2.77,0,0,1,349,411.77Z" style="fill:#263238"></path><polygon points="375.51 401.41 388.77 405.45 394.21 407.1 392.45 413.3 386.45 412.31 373.95 410.26 375.51 401.41" style="fill:#eec1bb"></polygon><polygon points="375.51 401.41 388.77 405.45 386.45 412.31 373.95 410.26 375.51 401.41" style="isolation:isolate;opacity:0.2"></polygon><path d="M384.64,412.06c-28.05-2.42-60.12-12.77-60.12-12.77s-5.16-5.06-6.48-1.43,7.81,16.52,7.81,16.52-13.4-2.4-20.66-12.07-4.69-25.19,12.87-26,68.56,27.84,68.56,27.84Z" style="fill:#720CF7"></path><polygon points="385.3 412.81 380.85 412.81 384.56 401.43 387.44 403.37 385.3 412.81" style="fill:#720CF7"></polygon><polygon points="385.3 412.81 380.85 412.81 384.56 401.43 387.44 403.37 385.3 412.81" style="fill:#fff;opacity:0.30000000000000004"></polygon><path d="M395.47,405.38a.22.22,0,0,1-.36-.1c0-.1-.54-3.28.27-4.39a1,1,0,0,1,.64-.36.71.71,0,0,1,.77.27,3.41,3.41,0,0,1-.25,2.39A13.45,13.45,0,0,1,395.47,405.38Zm0-3.9a8.62,8.62,0,0,0-.07,3.24c.69-1.31,1.38-3.18,1-3.7,0-.08-.13-.18-.4-.12a.55.55,0,0,0-.37.26,1.41,1.41,0,0,0-.17.32Z" style="fill:#720CF7"></path><path d="M395.43,405.43a.22.22,0,0,1-.19,0c-.09-.05-2-1-2.43-2.22a1.37,1.37,0,0,1,.07-1.07c.22-.47.52-.53.74-.48.85.17,1.79,2.54,1.85,3.58l0,.07Zm-2.26-3a1,1,0,0,0,0,.69,4.44,4.44,0,0,0,1.91,1.83c-.2-1.08-1-2.76-1.54-2.9-.06,0-.19,0-.33.28l0,.1Z" style="fill:#720CF7"></path><path d="M395.44,404.26c3-1.5,5-1.43,7.95-7.05.66-1.21,3.89.6,2.71,3.62-2,5-2.05,3.73-3.66,8-1.4,3.6-2.21,6.24-3.25,9.18l-.15.22h0a1.14,1.14,0,0,1-1.59.35l-6-4a.7.7,0,0,1-.27-.82l3-8.08A2.76,2.76,0,0,1,395.44,404.26Z" style="fill:#263238"></path><path d="M308,358.47a35.72,35.72,0,0,1-2.26-4.2c-2.18-4.67-2.87-16-3.08-23.86a90.83,90.83,0,0,1,2.73-9.58l5.68-2.56,2.67,4.51,1.65,3.51s1.73,21.13,6,26.06c2.79,3.18,5.58,6.25,7.21,8Z" style="opacity:0.2"></path><path d="M337.15,373.11s-18.89-17.7-20.69-22.49-2.86-26.16-2.86-26.16l-8.6,4.13s5.11,26,6.7,28.51c2.15,3.46,21.69,17.93,21.69,17.93Z" style="fill:#eec1bb"></path><path d="M309.78,313.52c6.68-1.64,5.47,14.47,5.68,19.65.17,4.06,1,13.23,2.87,17.27,2.75,5.88,16.57,19.85,16.57,19.85l-3.51,3.92s-18.25-12.81-21.22-17.36C307.8,353.23,296.63,316.75,309.78,313.52Z" style="fill:#263238"></path><path d="M344.78,330.89c0,4.17,0,14.31-1.39,20.05-.73-3-1.32-6.22-1.77-9.1A81.62,81.62,0,0,0,344.78,330.89Z" style="opacity:0.2"></path><path d="M331.87,295.3s3.59,1.47.86,5.49A6.76,6.76,0,0,0,331.87,295.3Z" style="fill:#263238"></path><path d="M331.66,327.6s11.77-9.88,7.65-11.57S329.65,323.35,331.66,327.6Z" style="fill:#263238"></path><path d="M320.17,317.44l-3-3.94q2.85.15,5.69.5l3.56,4.27,2.83,4.51,1.45,1.68v2.22S323.58,321.94,320.17,317.44Z" style="opacity:0.2"></path><path d="M331.67,328.21s.05-15.93-10.33-18.06S332.05,326.78,331.67,328.21Z" style="fill:#263238"></path><path d="M353,293.35v-.17c1.5-.09,4.74.09,4.42,3.28-.42,4.13-3.67,9.46-1.58,11.79,0,0-3.22-1.27-1-10.33C355.69,294.53,354.05,293.6,353,293.35Z" style="fill:#263238"></path><path d="M329.46,301.84c-6.07-3.25-3.2-8.2-.52-7.69h0a3.83,3.83,0,0,1,2.93,4.56C331.13,301.56,330.33,302.31,329.46,301.84Z" style="fill:#eec1bb"></path><path d="M339.18,299.82l-8.75-5,.28-.84,8.82,5,5.62,2.05,2.94,1,4.83,1.57-.3,1.45c-.21,1.06-1.05,1.69-1.86,1.41l-1.87-.65a2.1,2.1,0,0,1-1.08-2.43l.09-.46L345,302l-.09.47c-.22,1.05-1.05,1.68-1.87,1.4l-2.87-1a2.11,2.11,0,0,1-1.08-2.43Z" style="fill:#263238"></path><g style="opacity:0.4"><path d="M344.5,303.27a1.3,1.3,0,0,1-1.49.55l-2.87-1a1.73,1.73,0,0,1-1-1.18A8.69,8.69,0,0,1,344.5,303.27Z"></path><path d="M352.26,305.93a1.32,1.32,0,0,1-1.5.58l-1.87-.65a1.81,1.81,0,0,1-1.07-1.39A8.56,8.56,0,0,1,352.26,305.93Z"></path></g><path d="M364.63,371.38l7-.82a1.08,1.08,0,0,1,.95.36L376.2,375a1.09,1.09,0,0,1-.27,1.67l-1.05.61a1.08,1.08,0,0,1-.86.1l-6.21-1.85-.13,0-6.11-1a1.09,1.09,0,0,1-.84-1.45h0a1.1,1.1,0,0,1,.71-.67l3-.92Z" style="fill:#eec1bb"></path><path d="M336.6,372.42l7-.82a1.1,1.1,0,0,1,.95.36l3.61,4.08a1.09,1.09,0,0,1-.26,1.67l-1.05.61a1.15,1.15,0,0,1-.87.11l-6.21-1.86-.13,0-6.1-1a1.09,1.09,0,0,1-.85-1.45h0a1.1,1.1,0,0,1,.71-.67l3-.92Z" style="fill:#eec1bb"></path><rect x="355.1" y="376.99" width="17.25" height="2.77" transform="translate(727.46 756.76) rotate(180)" style="fill:#263238"></rect><path d="M333.29,377h21.88a1.36,1.36,0,0,1,1.36,1.36v1.41a0,0,0,0,1,0,0H333.29a0,0,0,0,1,0,0V377A0,0,0,0,1,333.29,377Z" transform="translate(689.82 756.76) rotate(180)" style="fill:#263238"></path><path d="M333.29,377h21.88a1.36,1.36,0,0,1,1.36,1.36v1.41a0,0,0,0,1,0,0H333.29a0,0,0,0,1,0,0V377A0,0,0,0,1,333.29,377Z" transform="translate(689.82 756.76) rotate(180)" style="fill:#fff;opacity:0.30000000000000004"></path><rect x="350.28" y="377.89" width="2.77" height="0.98" transform="translate(703.33 756.76) rotate(180)" style="fill:#263238"></rect><rect x="345.96" y="377.89" width="2.77" height="0.98" transform="translate(694.69 756.76) rotate(180)" style="fill:#263238"></rect><polygon points="359.83 377 357.99 377 365.19 351.96 367.03 351.96 359.83 377" style="fill:#263238"></polygon><polygon points="359.83 377 357.99 377 365.19 351.96 367.03 351.96 359.83 377" style="fill:#fff;opacity:0.30000000000000004"></polygon><polygon points="359.15 377 391.52 377 398.72 351.96 366.35 351.96 359.15 377" style="fill:#263238"></polygon><polygon points="359.15 377 391.52 377 398.72 351.96 366.35 351.96 359.15 377" style="fill:#fff;opacity:0.6000000000000001"></polygon><path d="M357.56,377h33.7c.57,0,1,.62,1,1.39s-.46,1.38-1,1.38h-33.7c-.57,0-1-.62-1-1.38S357,377,357.56,377Z" style="fill:#263238"></path><path d="M357.56,377h33.7c.57,0,1,.62,1,1.39s-.46,1.38-1,1.38h-33.7c-.57,0-1-.62-1-1.38S357,377,357.56,377Z" style="fill:#fff;opacity:0.5"></path><ellipse cx="357.56" cy="378.38" rx="1.03" ry="1.38" style="fill:#263238"></ellipse><ellipse cx="357.56" cy="378.38" rx="1.03" ry="1.38" style="fill:#fff;opacity:0.30000000000000004"></ellipse><polygon points="377.99 366.19 382.4 366.19 383.38 362.77 378.97 362.77 377.99 366.19" style="fill:#fff;opacity:0.6000000000000001"></polygon></g></svg>
