<svg width="16" height="16" viewBox="0 0 16 16" fill="none" xmlns="http://www.w3.org/2000/svg">
<path fill-rule="evenodd" clip-rule="evenodd" d="M14.72 8.15887C14.72 7.66251 14.6755 7.18523 14.5927 6.72705H8V9.43478H11.7673C11.605 10.3098 11.1118 11.0511 10.3705 11.5475V13.3039H12.6327C13.9564 12.0852 14.72 10.2907 14.72 8.15887Z" fill="#4285F4"/>
<path fill-rule="evenodd" clip-rule="evenodd" d="M7.99984 15.0001C9.88984 15.0001 11.4744 14.3733 12.6326 13.3042L10.3703 11.5478C9.74348 11.9678 8.94166 12.216 7.99984 12.216C6.17666 12.216 4.63348 10.9846 4.08302 9.33008H1.74438V11.1437C2.8962 13.4314 5.26348 15.0001 7.99984 15.0001Z" fill="#34A853"/>
<path fill-rule="evenodd" clip-rule="evenodd" d="M4.08318 9.33008C3.94318 8.91008 3.86364 8.46145 3.86364 8.00008C3.86364 7.53872 3.94318 7.09008 4.08318 6.67008V4.85645H1.74455C1.27045 5.80145 1 6.87054 1 8.00008C1 9.12963 1.27045 10.1987 1.74455 11.1437L4.08318 9.33008Z" fill="#FBBC05"/>
<path fill-rule="evenodd" clip-rule="evenodd" d="M7.99993 3.78409C9.02766 3.78409 9.95039 4.13727 10.6758 4.83091L12.6836 2.82318C11.4713 1.69364 9.88675 1 7.99993 1C5.26357 1 2.89629 2.56864 1.74448 4.85636L4.08311 6.67C4.63357 5.01545 6.17675 3.78409 7.99993 3.78409Z" fill="#EA4335"/>
</svg>
