<?xml version="1.0" encoding="UTF-8" standalone="no"?>
<svg
   xmlns:dc="http://purl.org/dc/elements/1.1/"
   xmlns:cc="http://creativecommons.org/ns#"
   xmlns:rdf="http://www.w3.org/1999/02/22-rdf-syntax-ns#"
   xmlns:svg="http://www.w3.org/2000/svg"
   xmlns="http://www.w3.org/2000/svg"
   viewBox="0 0 394.62668 133.85333"
   height="133.85333"
   width="394.62668"
   xml:space="preserve"
   id="svg2"
   version="1.1"><metadata
     id="metadata8"><rdf:RDF><cc:Work
         rdf:about=""><dc:format>image/svg+xml</dc:format><dc:type
           rdf:resource="http://purl.org/dc/dcmitype/StillImage" /></cc:Work></rdf:RDF></metadata><defs
     id="defs6"><clipPath
       id="clipPath20"
       clipPathUnits="userSpaceOnUse"><path
         id="path18"
         d="m 0,48.2891 h 878.891 v 907.285 H 0 Z" /></clipPath></defs><g
     transform="matrix(1.3333333,0,0,-1.3333333,0,133.85333)"
     id="g10"><g
       transform="scale(0.1)"
       id="g12"><g
         id="g14"><g
           clip-path="url(#clipPath20)"
           id="g16"><path
             id="path22"
             style="fill:#ffffff;fill-opacity:1;fill-rule:nonzero;stroke:none"
             d="m 307.582,94.7344 13.102,39.3826 -22.954,2.957 1.196,3.59 c 8.75,-0.156 15.269,0.426 24.101,2.164 6.024,1.16 6.934,1.406 10.606,2.938 l 3.594,-1.196 -17.879,-53.7497 12.097,-8.7031 -1.031,-3.0938 -38.144,12.6875 1.031,3.0977 14.281,-0.0742" /><path
             id="path24"
             style="fill:#ffffff;fill-opacity:1;fill-rule:nonzero;stroke:none"
             d="m 361.152,52.5938 2.164,18.5429 4.668,-0.5469 3.282,-13.5234 c 2.679,-0.7109 4.722,-1.2109 8.742,-1.6797 7.906,-0.9219 12.191,-0.2422 16.574,2.3985 4.27,2.789 7.16,7.3125 7.77,12.4961 1.195,10.2421 -5.176,17.5546 -16.329,18.8593 l -4.281,0.5 0.688,5.8321 1.55,-0.1797 c 12.321,-1.4414 19.047,3.2929 20.321,14.184 1.152,9.851 -3.949,15.703 -14.578,16.945 -3.11,0.363 -7.422,0.601 -10.059,0.519 l -7.617,-14.617 -4.539,0.531 2.105,18.02 c 9.879,1.344 19.137,1.84 24.84,1.172 16.074,-1.875 25.078,-10.289 23.719,-21.953 -1.227,-10.5081 -9.774,-17.262 -23.067,-18.594 14.04,-2.4336 22.204,-11.2734 20.856,-22.8086 -1.699,-14.5195 -15.75,-22.3398 -35.844,-19.9883 -5.574,0.6485 -8.801,1.1602 -18.906,3.5196 l -2.059,0.3711" /><path
             id="path26"
             style="fill:#ffffff;fill-opacity:1;fill-rule:nonzero;stroke:none"
             d="m 491.762,48.7578 11.031,1.1719 -2.055,19.3398 12.2,1.293 -0.895,8.4375 -12.203,-1.293 -5.895,55.547 -5.191,-0.551 -39.465,-64.6952 0.441,-4.1523 39.977,4.2422 z m -31.637,24.7305 2.121,3.5078 6.379,10.3906 6.859,12.0196 7.989,13.8357 1.203,2.227 4.137,-38.9377 -28.688,-3.043" /><path
             id="path28"
             style="fill:#ffffff;fill-opacity:1;fill-rule:nonzero;stroke:none"
             d="m 552.828,60.6367 -6.062,17.6524 4.449,1.5273 8.801,-10.7773 c 2.722,0.5195 4.785,0.9531 8.605,2.2617 7.535,2.5859 11.102,5.0547 13.914,9.3281 2.641,4.3594 3.297,9.6914 1.606,14.625 -3.348,9.7541 -12.258,13.5981 -22.875,9.9531 l -4.075,-1.394 -1.906,5.55 1.485,0.508 c 11.726,4.031 15.75,11.203 12.187,21.574 -3.219,9.383 -10.344,12.453 -20.469,8.981 -2.961,-1.02 -6.953,-2.66 -9.293,-3.879 l -0.558,-16.477 -4.321,-1.48 -5.89,17.16 c 8.336,5.48 16.469,9.926 21.898,11.789 15.309,5.258 27.067,1.563 30.875,-9.547 3.434,-10 -1.351,-19.781 -12.761,-26.734 13.707,3.875 24.89,-0.563 28.664,-11.5549 4.746,-13.8242 -4.551,-26.9492 -23.684,-33.5156 -5.309,-1.8242 -8.438,-2.7617 -18.57,-4.9922 l -2.02,-0.5586" /><path
             id="path30"
             style="fill:#ffffff;fill-opacity:1;fill-rule:nonzero;stroke:none"
             d="m 199.969,152.25 c -6.946,5.004 -8.485,14.973 -3.348,22.098 5.137,7.129 15.074,8.832 22.02,3.828 7.039,-5.067 8.578,-15.035 3.441,-22.16 -5.133,-7.133 -15.074,-8.832 -22.113,-3.766" /><path
             id="path32"
             style="fill:#ffffff;fill-opacity:1;fill-rule:nonzero;stroke:none"
             d="m 154.93,270.965 -2.328,-1.652 -8.805,5.503 -50.8986,-36.128 2.293,-10.129 -2.3242,-1.653 -17.4375,24.567 2.3242,1.652 8.8711,-5.598 50.895,36.129 -2.356,10.219 2.324,1.652 17.442,-24.562" /><path
             id="path34"
             style="fill:#ffffff;fill-opacity:1;fill-rule:nonzero;stroke:none"
             d="m 123.766,315.145 -2.614,-1.153 -7.515,7.164 -57.1214,-25.16 0.2071,-10.383 -2.6094,-1.148 -7.5899,17.23 33.5899,60.184 -44.0664,-19.414 0.2109,-10.379 -2.6133,-1.152 -10.3007,23.39 2.6093,1.153 7.5625,-7.266 64.4336,28.375 1.3789,-3.129 -38.9726,-68.914 50.7495,22.359 -0.253,10.481 2.609,1.152 10.305,-23.39" /><path
             id="path36"
             style="fill:#ffffff;fill-opacity:1;fill-rule:nonzero;stroke:none"
             d="m 75.2695,458.113 -16.7422,-1.015 -0.25,4.101 13.7852,6.438 c 0.2734,2.988 0.25,5.277 0.0586,8.465 -0.6445,10.593 -5.1992,15.918 -13.1719,15.433 -5.582,-0.344 -8.082,-2.433 -12.7304,-10.605 l -6.4961,-11.598 c -3.3946,-6.269 -5.0977,-8.316 -8.3829,-10.687 -2.8515,-2.004 -5.7656,-2.977 -9.5195,-3.207 -11.96092,-0.727 -20.58202,7.55 -21.378894,20.652 -0.117187,1.933 0.019532,5.371 0.164063,8.582 0.191406,2.527 0.410161,4.598 0.667971,5.984 l 0.73437,4.844 0.24219,1.617 16.1758,0.981 0.2539,-4.211 -13.33986,-6.184 -0.05859,-0.918 c -0.05078,-2.976 -0.11328,-3.781 0.01172,-5.828 0.69141,-11.394 4.54687,-16.531 12.06253,-16.074 5.2422,0.32 7.414,2.168 11.9492,10.328 l 6.8984,12.535 c 4.2266,7.578 4.8516,8.527 7.9102,10.887 3.0586,2.359 6.9765,3.738 11.3047,4 12.6406,0.769 21.3008,-8.188 22.2031,-22.996 0.2148,-3.532 -0.1523,-8.813 -0.9922,-13.782 l -1.0937,-6.468 -0.2657,-1.274" /><path
             id="path38"
             style="fill:#ffffff;fill-opacity:1;fill-rule:nonzero;stroke:none"
             d="M 2.81641,539.965 0,540.422 4.80469,570.047 7.62109,569.59 10.0273,559.488 55.082,552.18 c 13.5157,-2.188 20.4336,2.695 22.5547,15.761 2.2305,13.743 -2.6406,20.778 -15.707,22.895 l -45.6172,7.398 -5.4766,-8.82 -2.81637,0.453 4.27347,26.36 2.8164,-0.457 2.3906,-10.215 43.1367,-6.996 c 11.4883,-1.864 17.4375,-5.832 20.8477,-14.016 2.332,-5.578 2.7304,-10.965 1.3633,-19.41 -3.0899,-19.035 -12.043,-26.485 -28.6016,-23.801 l -45.95313,7.457 -5.47656,-8.824" /><path
             id="path40"
             style="fill:#ffffff;fill-opacity:1;fill-rule:nonzero;stroke:none"
             d="m 106.695,654.191 -2.636,1.082 -8.2035,-9.457 -23.6446,9.707 3.0352,7.391 c 6.418,15.621 2.4258,28.731 -10.3438,33.977 -6.0195,2.472 -11.5898,2.418 -16.871,-0.227 -5.5782,-2.766 -9.2227,-7.434 -13.0352,-16.726 L 24.0273,653.234 26.6641,652.152 34,659.5 91.7383,635.785 91.7891,625.402 94.4297,624.32 Z M 36.0078,670.395 39,677.676 c 2.4688,6.019 4.9531,8.453 9.457,9.812 3.8633,1 8.0977,0.496 12.4258,-1.281 4.4336,-1.82 7.6953,-4.394 9.6328,-7.781 2.586,-4.516 2.5235,-9.176 -0.4258,-16.356 l -1.9921,-4.855 -32.0899,13.18" /><path
             id="path42"
             style="fill:#ffffff;fill-opacity:1;fill-rule:nonzero;stroke:none"
             d="m 110.406,736.934 44.059,-0.18 10.418,14.996 -2.344,1.625 -8.449,-4.965 -38.86,-0.933 c 4.946,10.32 2.829,20.269 -5.609,26.125 -4.777,3.32 -10.1093,4.246 -15.2343,2.668 -5.1289,-1.579 -7.8945,-3.965 -13.039,-11.368 l -17.6407,-25.398 2.3438,-1.625 8.7461,5.594 51.2621,-35.614 -2.188,-10.148 2.34,-1.629 17.187,24.742 -2.339,1.625 -8.817,-5.683 -24.179,16.793 z m -31.2966,16.742 4.5547,6.558 c 5.0117,7.219 12.2812,8.282 19.9689,2.942 7.777,-5.403 9.863,-13.797 5.047,-20.735 l -4.364,-6.277 -25.2066,17.512" /><path
             id="path44"
             style="fill:#ffffff;fill-opacity:1;fill-rule:nonzero;stroke:none"
             d="m 168.059,805.461 21.039,-22.973 18.593,17.035 -3.351,13.797 2.777,2.539 10.61,-14.113 -40.223,-36.84 -1.926,2.106 4.371,9.418 -42.16,46.027 -9.766,-3.527 -1.925,2.101 39.886,36.532 11.559,-12.622 -2.777,-2.543 -12.434,5.633 -18.09,-16.57 20.735,-22.633 15.226,13.949 -4.074,10.192 2.523,2.312 16.879,-18.426 -2.523,-2.312 -9.719,4.867 -15.23,-13.949" /><path
             id="path46"
             style="fill:#ffffff;fill-opacity:1;fill-rule:nonzero;stroke:none"
             d="m 268.637,856.074 -5.797,61.367 19.254,9.965 1.312,-2.535 -6.781,-8.004 28.684,-55.437 10.449,0.91 1.312,-2.535 -26.757,-13.84 -1.309,2.535 6.777,8.004 -25.851,49.961 6.254,-68.453 -2.028,-1.047 -51.859,44.855 25.851,-49.961 10.45,0.911 1.312,-2.536 -22.703,-11.746 -1.309,2.535 6.676,7.95 -28.679,55.437 -10.348,-0.855 -1.313,2.531 19.965,10.332 46.438,-40.344" /><path
             id="path48"
             style="fill:#ffffff;fill-opacity:1;fill-rule:nonzero;stroke:none"
             d="m 377.898,880.352 -7.757,-5.469 0.472,-2.813 50.641,8.5 -0.996,17.653 -4.055,-0.68 -4.801,-13.418 -22.625,-3.797 -4.964,29.594 18.23,3.062 5.504,-9.375 3.492,0.586 -4.141,24.645 -3.488,-0.586 -2.121,-10.77 -18.23,-3.058 -5.278,31.394 22.059,3.703 7.367,-11.492 3.941,0.664 -2.835,16.879 -44.563,-7.48 -24.336,-74.203 -7.762,-5.469 0.477,-2.813 24.641,4.137 -0.469,2.813 -9.141,2.746 8.223,28.222 18.117,3.043 z m -20.535,28.601 9.918,34.641 5.387,-32.071 z" /><path
             id="path50"
             style="fill:#ffffff;fill-opacity:1;fill-rule:nonzero;stroke:none"
             d="m 525.793,867.93 c 11.027,-2.95 19.082,-2.864 26.801,0.386 10.648,4.473 18.476,14.313 22.043,27.649 2.773,10.359 2.093,19.285 -1.981,27.461 -4.527,9.125 -11.203,13.75 -25.535,17.582 l -32.844,8.789 -0.742,-2.754 8.231,-6.336 -16.133,-60.297 -10.297,-1.379 -0.734,-2.754 z m 6.887,71.629 11.793,-3.157 c 10.144,-2.714 15.492,-6.98 18.656,-15.031 2.687,-6.746 2.781,-14.328 0.301,-23.59 -2.887,-10.801 -7.707,-17.781 -15.34,-22.468 -6.906,-4.18 -12.481,-4.696 -21.961,-2.157 l -10.469,2.801 17.02,63.602" /><path
             id="path52"
             style="fill:#ffffff;fill-opacity:1;fill-rule:nonzero;stroke:none"
             d="m 587.031,846.551 1.305,2.539 10.348,-0.824 28.484,55.539 -6.707,7.929 1.305,2.536 26.8,-13.747 -1.3,-2.539 -10.453,0.871 -28.485,-55.535 6.809,-7.98 -1.305,-2.539 -26.801,13.75" /><path
             id="path54"
             style="fill:#ffffff;fill-opacity:1;fill-rule:nonzero;stroke:none"
             d="m 700.27,800.273 -13.493,-16.675 -1.441,0.578 c -8.926,3.844 -15.141,7.402 -21.172,12.285 -9.851,7.965 -14.496,15.828 -14.941,25.437 -0.434,9.446 2.843,18.395 9.8,27 8.11,10.024 18.211,15.797 29.012,16.454 10,0.57 18.86,-2.633 28.973,-10.813 6.035,-4.879 9.488,-8.41 14.57,-15.012 l 0.938,-1.199 -10.696,-13.219 -3.367,2.727 4.832,14.141 c -1.683,2.093 -3.578,3.921 -6.594,6.363 -9.23,7.461 -16.324,10.117 -24.636,8.918 -8.805,-1.094 -16.41,-5.953 -23.512,-14.738 -12.988,-16.059 -12.039,-31.942 2.687,-43.856 3.192,-2.582 6.622,-5.059 8.77,-6.211 l 11.84,14.641 -5.012,9.043 1.793,2.218 23.422,-18.945 -1.793,-2.219 -9.98,3.082" /><path
             id="path56"
             style="fill:#ffffff;fill-opacity:1;fill-rule:nonzero;stroke:none"
             d="m 706.664,759.984 2.301,1.688 8.89,-5.367 50.329,36.914 -2.45,10.09 2.301,1.687 11.137,-15.18 -19.785,-66.019 38.828,28.476 -2.449,10.094 2.3,1.684 15.118,-20.61 -2.301,-1.687 -8.957,5.461 -56.77,-41.641 -2.023,2.762 23.148,75.707 -44.718,-32.797 2.519,-10.183 -2.301,-1.688 -15.117,20.609" /><path
             id="path58"
             style="fill:#ffffff;fill-opacity:1;fill-rule:nonzero;stroke:none"
             d="m 761.266,677.613 2.593,1.192 7.633,-7.043 56.711,26.066 -0.375,10.379 2.594,1.188 12.582,-27.372 -2.594,-1.191 -7.676,7.145 -56.718,-26.063 0.422,-10.48 -2.59,-1.192 -12.582,27.371" /><path
             id="path60"
             style="fill:#ffffff;fill-opacity:1;fill-rule:nonzero;stroke:none"
             d="m 795.516,606.934 62.086,16.062 -4.317,16.68 -14.457,1.683 -1.031,3.977 18.117,4.684 15.832,-61.2 -18.117,-4.687 -1,3.867 11.832,8.484 -4.172,16.129 -62.086,-16.058 -0.863,-12.602 -2.762,-0.715 -8.687,33.582 2.761,0.715 6.864,-10.601" /><path
             id="path62"
             style="fill:#ffffff;fill-opacity:1;fill-rule:nonzero;stroke:none"
             d="m 833.109,508.227 -23.324,-9.024 -4.515,8.524 -2.852,-0.094 0.988,-28.969 2.856,0.098 3.922,8.812 68.707,27.356 -0.215,6.39 -70.547,26.239 -4.52,8.636 -2.851,-0.097 0.855,-24.977 2.852,0.102 3.922,8.808 23.902,-7.855 z m 32.918,12.316 c -3.617,-1.152 -5.418,-1.785 -10.152,-3.547 l -18.375,-6.906 -0.699,20.41 29.226,-9.957" /><path
             id="path64"
             style="fill:#ffffff;fill-opacity:1;fill-rule:nonzero;stroke:none"
             d="m 803.602,437.777 63.074,-11.554 3.105,16.945 -12.41,7.613 0.742,4.039 18.407,-3.371 -11.395,-62.183 -18.402,3.375 0.715,3.925 14.304,2.719 3.004,16.387 -63.078,11.555 -6.09,-11.067 -2.805,0.516 6.254,34.121 2.805,-0.516 1.77,-12.504" /><path
             id="path66"
             style="fill:#ffffff;fill-opacity:1;fill-rule:nonzero;stroke:none"
             d="m 783.344,383.508 2.672,-1.004 0.379,-10.375 58.457,-21.875 7.105,7.574 2.672,-1 -10.559,-28.211 -2.672,1 -0.343,10.485 -58.453,21.875 -7.145,-7.688 -2.672,1 10.559,28.219" /><path
             id="path68"
             style="fill:#ffffff;fill-opacity:1;fill-rule:nonzero;stroke:none"
             d="m 763.867,328.031 14.469,-8.492 -2.082,-3.543 -15.031,2.344 c -1.895,-2.332 -3.149,-4.238 -4.77,-6.996 -5.371,-9.149 -4.558,-16.114 2.328,-20.156 4.821,-2.833 8.071,-2.481 16.481,1.707 l 11.859,6.003 c 6.313,3.309 8.867,4.059 12.918,4.196 3.481,0.074 6.445,-0.742 9.691,-2.649 10.333,-6.062 12.872,-17.742 6.231,-29.058 -0.984,-1.672 -3.012,-4.449 -4.922,-7.035 -1.566,-1.993 -2.902,-3.59 -3.891,-4.594 l -3.308,-3.613 -1.106,-1.207 -13.976,8.207 2.14,3.636 14.524,-2.308 0.558,0.73 c 1.7,2.445 2.204,3.074 3.243,4.848 5.777,9.84 5.441,16.258 -1.055,20.066 -4.527,2.66 -7.359,2.34 -15.676,-1.91 l -12.715,-6.562 c -7.734,-3.93 -8.789,-4.372 -12.64,-4.622 -3.852,-0.25 -7.871,0.786 -11.61,2.981 -10.925,6.41 -13.117,18.676 -5.609,31.473 1.793,3.05 5.039,7.23 8.508,10.882 l 4.512,4.762 0.929,0.91" /><path
             id="path70"
             style="fill:#ffffff;fill-opacity:1;fill-rule:nonzero;stroke:none"
             d="m 698.559,167.535 c -6.637,-5.406 -16.664,-4.308 -22.215,2.5 -5.555,6.813 -4.614,16.852 2.019,22.258 6.719,5.484 16.746,4.383 22.301,-2.422 5.551,-6.812 4.609,-16.855 -2.105,-22.336" /><path
             id="path72"
             style="fill:#ffffff;fill-opacity:1;fill-rule:nonzero;stroke:none"
             d="m 397.797,622.293 c 2.609,2.516 4.652,6.004 6.086,10.387 0.992,3.047 1.664,6.261 2.035,9.816 0,0 0.031,0.188 0.07,0.438 l 0.211,1.457 c 0,0 0.004,0.004 0.004,0.011 2.508,18.422 11.449,22.805 17.973,25.996 0,0 4.429,2.469 4.664,2.688 1.109,0.875 2.332,2.176 3.019,5.16 0.004,0.016 0.004,0.043 0.004,0.043 0,0 0,-0.012 0,-0.035 l 0.539,3.434 c 0.461,4.8 -0.593,7.976 -3.148,9.433 -15.242,8.684 -27.981,-11.258 -29.383,-13.558 -2.469,-4.04 -4.109,-8.141 -4.531,-11.243 0,0 -0.266,-2.074 -0.32,-2.554 l -0.34,-2.965 c -1.285,-11.121 -2.496,-21.629 -8.641,-25.895 -2.453,-1.711 -5.359,-2.199 -8.43,-1.437 -4.214,1.043 -8.613,3.664 -10.222,9.308 -0.957,-1.656 -1.715,-3.761 -1.715,-7.105 0,-2.082 0.254,-4.555 0.848,-7.5 0.335,-1.656 1.035,-3.137 2.136,-4.531 3.543,-4.481 10.211,-6.446 13.571,-6.633 4.355,-0.235 10.582,0.492 15.57,5.285" /><path
             id="path74"
             style="fill:#ffffff;fill-opacity:1;fill-rule:nonzero;stroke:none"
             d="m 419.535,652.469 c 2.512,-0.168 4.668,-0.637 6.52,-1.344 0.25,1.035 0.476,2.117 0.695,3.199 l -0.836,4.918 c -2.547,-1.433 -4.707,-3.441 -6.379,-6.773" /><path
             id="path76"
             style="fill:#ffffff;fill-opacity:1;fill-rule:nonzero;stroke:none"
             d="m 375.375,607.484 c -1.867,0.528 -3.75,1.243 -5.598,2.153 -0.254,-1.188 -0.5,-2.364 -0.902,-3.625 -0.008,-0.008 -0.215,-0.824 -0.215,-1.543 0,-0.297 0.133,-0.453 0.227,-0.653 1.031,0.25 2.933,1.313 4.308,2.532 0.637,0.55 1.383,0.925 2.18,1.136" /><path
             id="path78"
             style="fill:#ffffff;fill-opacity:1;fill-rule:nonzero;stroke:none"
             d="m 414.988,616.777 c -1.914,0.907 -3.679,2.086 -5.25,3.496 -0.281,-0.441 -0.578,-0.859 -0.871,-1.277 1.938,-1.402 3.914,-2.414 5.328,-2.414 0.301,0 0.535,0.125 0.793,0.195" /><path
             id="path80"
             style="fill:#ffffff;fill-opacity:1;fill-rule:nonzero;stroke:none"
             d="m 506.547,589.801 c 2.402,-2.235 6.207,-1.715 7.707,-0.942 l 3.914,2.407 c 2.395,1.797 3.859,3.761 4.617,6.168 0.008,0.054 0.028,0.152 0.028,0.117 l 0.617,4.359 c 0,1.016 -0.043,1.973 -0.114,2.879 -0.058,0.727 -0.152,1.391 -0.25,2.047 -0.027,0.156 -0.035,0.34 -0.062,0.492 -0.262,1.551 -0.637,2.902 -1.07,4.078 -1.543,-1.308 -3.246,-2.511 -5.149,-3.515 0.32,-1.192 0.586,-2.422 0.586,-3.711 0,-3.992 -1.641,-8.125 -5.805,-10.473 -2.457,-1.387 -5.035,-1.293 -7.445,-0.695 0.57,-1.024 1.203,-2.074 2.426,-3.211" /><path
             id="path82"
             style="fill:#ffffff;fill-opacity:1;fill-rule:nonzero;stroke:none"
             d="m 506.613,604.695 c -0.894,-0.191 -1.664,-0.359 -2.121,-0.457 0.762,-0.429 1.461,-0.746 1.965,-0.871 0.102,0.196 0.231,0.363 0.231,0.656 0,0.231 -0.043,0.45 -0.075,0.672" /><path
             id="path84"
             style="fill:#ffffff;fill-opacity:1;fill-rule:nonzero;stroke:none"
             d="m 526.188,648.277 c -0.043,1.403 -0.168,5.786 -0.168,5.793 l -0.332,2.254 c -0.016,0.059 -0.059,0.106 -0.075,0.16 l -0.883,3.625 c -3.097,9.457 -11.855,18.891 -22.394,19.2 l -2.52,0.074 c 0,0 -2.257,-0.02 -3.964,-0.028 2.003,-3.519 3.507,-7.097 4.386,-10.445 0.02,-0.062 0.035,-0.125 0.051,-0.18 0.285,-1.105 0.516,-2.187 0.656,-3.222 l 0.696,-5.707 c 0.609,-5.324 1.882,-16.203 4.011,-18.156 1.981,0.507 2.864,1.093 2.864,3.14 0,0.781 -0.125,1.774 -0.352,3.043 l 0.492,5.461 c 0.153,1.641 1.051,1.836 2.442,2.723 1.39,0.89 3.113,-0.207 4.664,-0.762 l 0.511,-0.184 c 4.262,-1.492 7.536,-3.781 9.915,-6.789" /><path
             id="path86"
             style="fill:#ffffff;fill-opacity:1;fill-rule:nonzero;stroke:none"
             d="m 361.094,589.305 c 1.5,-0.778 5.301,-1.293 7.707,0.945 1.215,1.129 1.851,2.188 2.418,3.211 -2.406,-0.602 -4.985,-0.691 -7.434,0.691 -1.644,0.926 -2.625,2.262 -3.527,3.625 0.019,-0.644 0.074,-1.339 0.074,-1.964 0,-2.129 -0.148,-4.032 -0.394,-5.801 0.625,-0.379 1.156,-0.707 1.156,-0.707" /><path
             id="path88"
             style="fill:#ffffff;fill-opacity:1;fill-rule:nonzero;stroke:none"
             d="m 423.242,625.473 c 2.192,0 4.196,0.422 5.988,1.23 3.067,1.399 5.395,4.113 6.856,7.735 0.039,0.593 0.082,1.375 0.141,2.257 l 0.039,0.575 c 0.047,0.875 0.113,1.855 0.175,2.898 -0.718,0.492 -1.402,1.004 -2.058,1.559 -0.528,-1.329 -1.113,-2.434 -1.715,-3.059 -1.242,-1.273 -3.129,-1.605 -4.879,-1.285 -1.754,0.32 -3.316,1.73 -4.023,3.367 l 0.187,-0.434 c -0.312,0.457 -1.969,1.625 -5.875,1.625 -0.492,0 -1.07,-0.558 -1.625,-1.05 -0.375,-3.274 -1.015,-6.328 -1.84,-9.274 1.297,-3.269 5.059,-6.144 8.629,-6.144" /><path
             id="path90"
             style="fill:#ffffff;fill-opacity:1;fill-rule:nonzero;stroke:none"
             d="m 490.383,664.09 c -0.543,4.035 -3.442,10.859 -8.715,17.012 -4.758,5.566 -14.363,13.972 -25.199,7.8 0,0 -0.352,-0.254 -0.664,-0.484 -0.422,-0.715 -1.785,-3.051 -2.16,-3.691 -0.243,-0.946 -0.383,-2 -0.407,-3.157 0,-0.148 -0.023,-0.293 -0.023,-0.441 0.008,-0.477 0.055,-0.981 0.098,-1.484 0.027,-0.336 0.031,-0.645 0.07,-0.977 0.109,-0.855 0.265,-1.73 0.469,-2.625 1.066,-4.652 3.433,-5.801 7.742,-7.883 l 1.496,-0.73 c 0.117,-0.059 0.18,-0.153 0.281,-0.215 1.305,-0.727 3.801,-2.113 3.731,-2.055 6.57,-4.297 10.386,-10.746 12.101,-20.613 0.235,-1.352 0.442,-2.777 0.594,-4.266 l 1.476,-7.98 c 0.008,-0.059 0.008,-0.133 0.016,-0.196 l 0.195,-0.625 c 0.375,-1.152 0.797,-2.46 0.829,-2.562 -0.024,0.074 -0.184,0.691 -0.2,0.738 4.575,-12.992 14.157,-15.25 21.375,-14.867 l 5.34,1.207 c 2.457,0.867 6.906,2.922 9.176,6.969 0.023,0.031 0.031,0.066 0.031,0.066 l 1.168,2.918 c 0.59,2.949 0.848,5.426 0.848,7.5 0,3.352 -0.762,5.453 -1.715,7.11 -1.617,-5.641 -6.016,-8.27 -10.227,-9.305 -3.07,-0.762 -5.984,-0.262 -8.433,1.437 -6.141,4.262 -7.348,14.762 -8.629,25.895 l -0.664,5.504" /><path
             id="path92"
             style="fill:#ffffff;fill-opacity:1;fill-rule:nonzero;stroke:none"
             d="m 373.949,679.832 c -0.105,-0.008 -0.226,-0.008 -0.328,-0.031 -11.141,-1.602 -21.344,-11.043 -23.738,-21.969 l -0.559,-3.316 -0.179,-6.262 c -0.012,-0.844 -0.028,-1.707 -0.043,-2.582 -0.266,-13.078 -1.161,-28.09 -11.282,-30.285 -2.48,-0.547 -6.554,-0.524 -9.461,3.941 -0.273,-0.215 -0.539,-0.351 -0.804,-0.613 l -0.004,-0.004 c -0.988,-0.973 -1.633,-1.988 -1.809,-2.856 l -0.375,-2.007 c 0.004,-0.641 -0.086,-1.274 -0.316,-1.887 -0.039,-0.289 -0.09,-0.602 -0.121,-0.859 -0.024,-0.161 -0.035,-0.305 -0.051,-0.461 -0.047,-0.391 -0.066,-0.762 -0.07,-1.11 -0.004,-0.105 -0.012,-0.203 -0.012,-0.308 0.004,-0.41 0.031,-0.793 0.086,-1.18 0.008,-0.051 0.023,-0.09 0.027,-0.145 0.055,-0.335 0.137,-0.691 0.235,-1.058 0.035,-0.125 0.074,-0.254 0.113,-0.383 0.097,-0.332 0.211,-0.684 0.344,-1.07 0.05,-0.133 0.089,-0.262 0.14,-0.41 0.188,-0.516 0.387,-1.067 0.633,-1.719 0,0 2.617,-5.488 2.621,-5.492 l 0.703,-1.121 c 1.406,-2.063 3.614,-4.528 6.125,-4.528 4.703,0 6.672,4.52 9.559,15.317 l 2.039,6.964 c 0.473,1.379 1.016,2.602 1.586,3.735 0.121,0.242 0.25,0.469 0.379,0.703 0.554,1.027 1.152,1.941 1.789,2.746 0.027,0.031 0.051,0.07 0.078,0.109 1.457,1.801 3.144,3.036 5.031,3.711 -0.055,0.223 -0.172,0.422 -0.219,0.657 -0.382,1.914 -0.64,3.738 -0.816,5.488 -0.055,0.582 -0.062,1.117 -0.098,1.676 -0.047,0.84 -0.144,1.722 -0.144,2.527 0,0.301 0.047,0.574 0.055,0.875 0.011,0.52 0.054,1.02 0.085,1.527 0.079,1.047 0.2,2.043 0.372,3.012 0.082,0.453 0.156,0.93 0.253,1.363 0.258,1.106 0.59,2.153 0.993,3.145 0.082,0.215 0.136,0.465 0.23,0.676 0.516,1.179 1.141,2.273 1.852,3.289 0.199,0.293 0.437,0.539 0.652,0.816 0.563,0.711 1.172,1.391 1.84,2.027 0.316,0.293 0.644,0.579 0.984,0.856 0.696,0.574 1.442,1.094 2.239,1.582 0.347,0.219 0.679,0.445 1.054,0.652 1.188,0.645 2.442,1.231 3.828,1.719 l 0.516,0.176 c 1.559,0.555 3.273,1.652 4.668,0.765 1.391,-0.886 2.285,-1.082 2.441,-2.722 l 0.489,-5.465 c -0.239,-1.301 -0.36,-2.309 -0.36,-3.094 0,-2.054 0.891,-2.586 2.864,-3.094 2.128,1.961 3.41,12.833 4.015,18.165 0,0 0.356,3.019 0.418,3.527 0,0 0.274,2.164 0.274,2.172 0.121,0.914 0.328,1.871 0.589,2.847 0.692,2.852 1.86,5.914 3.461,9.032 -3.257,0.468 -7.386,0.707 -11.183,0.55 -1.196,-0.562 -2.465,-0.664 -3.688,-0.316" /><path
             id="path94"
             style="fill:#ffffff;fill-opacity:1;fill-rule:nonzero;stroke:none"
             d="m 444.297,647.805 c 2.734,-1.352 5.93,-2.125 9.289,-2.227 7.551,-0.215 8.117,4.094 8.305,5.508 0.117,0.906 0.121,1.613 0.093,2.25 -0.007,0.238 -0.031,0.434 -0.058,0.637 -0.059,0.422 -0.125,0.82 -0.227,1.121 -0.031,0.086 -0.058,0.187 -0.09,0.261 -0.32,0.758 -0.746,1.149 -1.043,1.379 0,0 -1.593,0.86 -2.148,1.106 -2.5,0.851 -3.473,0.898 -3.762,0.879 -0.16,-0.133 -0.617,-0.637 -1.668,-2.719 -0.836,-1.66 -2.476,-2.77 -4.332,-2.914 -1.843,-0.16 -3.648,0.664 -4.738,2.176 -0.391,0.535 -0.73,1.187 -1.043,1.894 -0.09,0.196 -0.168,0.414 -0.25,0.637 -0.219,0.551 -0.418,1.133 -0.594,1.746 -0.07,0.219 -0.136,0.438 -0.199,0.672 -0.437,1.691 -0.754,3.504 -0.977,5.297 -0.031,0.226 -0.054,0.445 -0.07,0.68 -0.086,0.679 -0.152,1.347 -0.207,2 -0.015,0.222 -0.035,0.437 -0.055,0.656 -0.046,0.715 -0.089,1.379 -0.121,2.004 -0.886,-1.739 -2.007,-3.285 -3.367,-4.645 -0.113,-0.914 -0.441,-3.422 -0.605,-4.707 l -0.098,-0.781 0.867,-4.996 c 1.164,-3.5 3.547,-6.164 7.098,-7.914" /><path
             id="path96"
             style="fill:#ffffff;fill-opacity:1;fill-rule:nonzero;stroke:none"
             d="m 359.609,612.844 c 0.164,0.976 0.243,1.812 0.243,2.508 0,0.007 -0.012,0.015 -0.012,0.015 -0.008,-0.008 -0.274,-0.277 -0.645,-0.828 0.239,-0.508 0.379,-1.07 0.414,-1.695" /><path
             id="path98"
             style="fill:#ffffff;fill-opacity:1;fill-rule:nonzero;stroke:none"
             d="m 336.906,681.223 c -0.312,0.382 -0.566,0.812 -0.761,1.269 -2.247,5.285 -13.711,10.055 -27.852,11.59 l -9.199,-0.227 c 0,0 -5.551,-0.144 -5.981,-0.152 -2.914,-0.609 -5.875,-0.769 -8.855,-0.726 3.508,-4.657 6.512,-9.907 8.785,-15.711 1.699,-4.348 2.906,-7.887 3.687,-12.239 l 0.438,-3.035 c 1.164,-8.105 1.691,-11.808 7.195,-21.652 2.606,-4.656 8.387,-11.516 13.414,-16.801 0.262,0.371 0.52,0.754 0.821,1.121 l 0.086,1.625 c 0.121,3.551 0.265,7.57 1.879,11.469 l 1.3,3.164 c 3.504,8.594 6.469,15.84 13.336,20.086 0.981,4.297 2.793,12.207 3.043,13.297 -0.113,1.164 -0.277,2.879 -0.277,2.879 -0.172,2.57 -0.266,3.062 -1.059,4.043" /><path
             id="path100"
             style="fill:#ffffff;fill-opacity:1;fill-rule:nonzero;stroke:none"
             d="m 330.414,633.672 c -0.262,-0.637 -0.363,-1.41 -0.496,-2.152 0.559,0.07 1.137,0.21 1.664,0.16 2,-0.188 3.375,-0.774 4.113,-2.629 0,0 0.282,-0.696 0.535,-1.348 1.86,4.524 2.172,15.875 2.254,20.738 0,0 0.012,0.414 0.032,1.039 0.004,0.102 0.007,0.168 0.007,0.282 -2.351,-2.602 -4.191,-6.508 -6.789,-12.879 l -1.32,-3.211" /><path
             id="path102"
             style="fill:#ffffff;fill-opacity:1;fill-rule:nonzero;stroke:none"
             d="m 512.262,747.777 c 0,0.215 -0.012,0.399 -0.024,0.543 -0.152,2.215 -1.058,3.586 -2.703,4.09 -0.922,0.281 -1.648,0.828 -2.265,1.473 -12.981,0.019 -25.293,-0.645 -36.625,-2.082 -16.434,-2.09 -32.645,-5.203 -47.645,-9.106 3.43,-3.07 5.531,-7.367 5.828,-12.386 0.777,0.445 1.652,0.64 2.567,0.656 7.554,2.32 15.613,4.449 24.16,6.316 16.316,3.586 32.828,5.5 48.824,5.68 0,0 2.348,0.144 3.176,0.195 4.207,0.969 4.707,3.324 4.707,4.621" /><path
             id="path104"
             style="fill:#ffffff;fill-opacity:1;fill-rule:nonzero;stroke:none"
             d="m 390.512,700.109 c -0.242,-2.589 -1.004,-5.945 -3.051,-9.605 2.773,-0.27 5.359,-0.719 7.59,-1.324 9.898,12.222 24.746,19.597 39.484,11.195 3.074,-1.746 5.289,-4.352 6.735,-7.547 2.984,2.402 6.203,4.25 9.527,5.391 0.266,0.094 0.531,0.09 0.801,0.136 9.992,5.481 21.058,4.047 30.953,-3.535 -0.153,0.618 -0.293,1.235 -0.403,1.84 -3.027,2.426 -6.668,4.832 -10.789,7.192 -0.136,0.062 -0.257,0.148 -0.394,0.226 -5.785,3.277 -12.508,6.442 -19.945,9.375 -2.016,-0.406 -3.997,0.328 -5.2,1.996 -4.398,1.606 -9.023,3.117 -13.793,4.531 -2.238,-0.714 -4.48,-1.425 -6.605,-2.164 -1.242,-2.082 -3.652,-2.925 -5.961,-2.23 -6.617,-2.559 -12.625,-5.273 -17.797,-8.129 -0.078,-0.086 -8.805,-5.484 -11.152,-7.348" /><path
             id="path106"
             style="fill:#ffffff;fill-opacity:1;fill-rule:nonzero;stroke:none"
             d="m 461.578,615.691 c 4.559,0 10.602,4.059 10.602,7.122 0,0 -0.325,4.046 -0.325,4.058 l -0.55,1.75 c -0.403,0.859 -0.875,1.227 -1.84,1.445 -0.481,0.102 -0.988,0.184 -1.516,0.196 -0.215,0.008 -0.445,-0.063 -0.668,-0.082 -0.324,-0.032 -0.636,-0.028 -0.976,-0.125 -1.133,-0.325 -2.36,-1.09 -3.637,-2.637 -1.402,-1.684 -3.68,-2.348 -5.762,-1.664 -1.113,0.363 -2.035,0.918 -2.886,1.539 -0.223,0.16 -0.426,0.348 -0.641,0.523 -0.66,0.579 -1.246,1.196 -1.75,1.879 -0.07,0.102 -0.152,0.184 -0.215,0.285 -1.195,1.719 -1.949,3.625 -2.43,5.364 -0.73,0.113 -1.445,0.25 -2.156,0.406 -0.086,-1.387 -0.152,-2.637 -0.152,-2.637 0.152,-10.422 6.14,-17.422 14.902,-17.422" /><path
             id="path108"
             style="fill:#ffffff;fill-opacity:1;fill-rule:nonzero;stroke:none"
             d="m 453.609,723.867 c 3.809,-1.472 7.477,-3 10.938,-4.59 0.008,0.223 0.008,0.457 0.023,0.68 0.219,3.156 1.203,6.106 2.723,8.75 -3.156,-0.562 -6.305,-1.141 -9.449,-1.832 -1.703,-0.379 -3.321,-0.793 -4.992,-1.191 l 0.757,-1.817" /><path
             id="path110"
             style="fill:#ffffff;fill-opacity:1;fill-rule:nonzero;stroke:none"
             d="m 341,531.426 c 2.961,3.527 5.289,6.293 5.289,13.484 0,1.223 -0.234,2.891 -0.375,4.375 -0.086,-0.023 -0.176,-0.031 -0.266,-0.051 -0.531,-0.132 -1.066,-0.242 -1.601,-0.32 -0.324,-0.051 -0.641,-0.086 -0.961,-0.113 -0.297,-0.031 -0.59,-0.055 -0.883,-0.071 -0.39,-0.023 -0.785,-0.046 -1.172,-0.046 -0.222,0 -0.445,0 -0.676,0.007 -0.386,0 -0.773,0 -1.152,0.028 -0.332,0.019 -0.637,0.039 -0.961,0.07 -0.238,0.012 -0.48,0.024 -0.715,0.039 -0.027,-0.109 -0.082,-0.25 -0.105,-0.363 -0.871,-3.817 -2.668,-8.488 -6.996,-12.25 l -1.028,-3.781 c -1.425,-5.028 -2.71,-9.559 -2.71,-14.75 0,-1.911 0.171,-3.907 0.574,-6.055 1.047,-5.543 3.265,-10.379 5.937,-12.918 1.149,-1.09 2.219,-1.688 3.27,-1.813 2.019,-0.25 3.437,0.02 4.219,0.805 0.304,0.301 0.414,0.844 0.617,1.285 -1.395,0.407 -2.879,1.082 -4.407,2.535 -3.109,2.942 -4.074,6.801 -4.074,10.469 0,5.387 2.098,10.367 2.551,11.375 l 5.625,8.059" /><path
             id="path112"
             style="fill:#ffffff;fill-opacity:1;fill-rule:nonzero;stroke:none"
             d="m 509.219,732.613 c -0.145,-0.023 -0.285,-0.054 -0.438,-0.058 0,0 -3.746,-0.235 -4.015,-0.242 -2.821,-0.04 -5.668,-0.18 -8.508,-0.329 0.008,-1.242 -0.426,-2.496 -1.25,-3.574 -1.352,-1.758 -4.008,-2.347 -6.137,-1.703 l -4.125,1.246 c -2.293,0.168 -4.535,-0.59 -6.308,-2.133 -1.907,-1.652 -3.051,-3.996 -3.227,-6.59 -0.156,-2.343 0.531,-4.57 1.887,-6.406 2.215,-1.277 4.312,-2.57 6.261,-3.879 1.375,3.977 3.512,7.438 6.496,9.965 4.329,3.656 9.907,5.27 16.235,4.641 0.422,-0.051 0.832,-0.27 1.265,-0.363 -0.019,0.226 -0.14,0.503 -0.14,0.722 0,0.223 0.008,0.438 0.015,0.645 0.196,2.84 0.934,5.527 1.989,8.058" /><path
             id="path114"
             style="fill:#ffffff;fill-opacity:1;fill-rule:nonzero;stroke:none"
             d="m 537.059,496.32 c 0.203,-0.441 0.308,-0.98 0.613,-1.285 0.781,-0.781 2.203,-1.051 4.226,-0.808 0.868,0.113 1.743,0.515 2.672,1.265 0.727,0.578 1.426,1.324 2.082,2.227 1.985,2.707 3.598,6.734 4.442,11.242 0.355,1.894 0.508,3.656 0.551,5.355 0,0.153 0.019,0.309 0.019,0.457 0.012,1.61 -0.113,3.157 -0.309,4.672 -0.054,0.426 -0.14,0.852 -0.21,1.27 -0.196,1.144 -0.418,2.285 -0.688,3.418 -0.109,0.457 -0.207,0.902 -0.32,1.351 -0.367,1.414 -0.758,2.836 -1.172,4.305 0,0 -0.543,2.012 -1.027,3.813 -6.723,3.882 -9.145,10.05 -10.133,14.793 -1.606,-0.125 -3.391,-0.192 -5.211,-0.04 -0.278,-2.246 -0.512,-4.406 -0.512,-6.093 0,-7.215 2.324,-9.981 5.285,-13.496 0,0 5.621,-8.075 5.735,-8.313 0.378,-0.851 2.445,-5.75 2.445,-11.105 0,-3.664 -0.961,-7.543 -4.082,-10.493 -1.527,-1.453 -3.012,-2.132 -4.406,-2.535" /><path
             id="path116"
             style="fill:#ffffff;fill-opacity:1;fill-rule:nonzero;stroke:none"
             d="m 543.254,750.879 c -0.215,-3.09 0.816,-5.328 2.93,-8.633 1.351,-2.117 1.043,-4.898 -0.746,-6.664 -1.793,-1.766 -4.575,-2.039 -6.68,-0.66 -1.887,1.246 -4.078,1.988 -6.332,2.156 -3.516,0.25 -6.946,-0.91 -9.664,-3.269 -2.887,-2.512 -4.625,-6.051 -4.887,-9.946 -0.016,-1.074 1.105,-4.621 2.348,-7.453 0.898,-2.066 0.457,-4.5 -1.184,-6.043 -1.641,-1.551 -4.035,-1.914 -6.035,-0.894 l -1.387,0.711 c -1.722,0.894 -4.929,2.562 -6.672,2.769 -3.34,0.328 -6.097,-0.406 -8.203,-2.183 -2.5,-2.118 -4.039,-5.668 -4.332,-9.989 -0.156,-2.308 1.465,-7.265 3.176,-10.793 l 4.59,0.051 2.465,-0.078 c 8.097,-0.227 15.144,-3.66 20.707,-8.672 0.39,1.199 1,2.434 1.886,3.707 0.168,0.317 0.329,0.637 0.551,0.918 -0.062,-0.086 -0.055,-0.156 -0.117,-0.238 6.348,12.41 27.059,16.035 35.922,17 l 10.683,-0.172 5.516,-0.16 c 0.367,-0.008 1.039,-0.063 1.395,-0.145 5.976,-1.429 12.281,-0.804 18.73,1.727 4.363,3.508 7.121,7.433 8.004,11.711 0.227,1.082 0.332,2.191 0.332,3.316 0,13.063 -14.793,29.141 -39.922,44.156 -0.273,0.106 -0.562,0.133 -0.824,0.289 -1.945,1.141 -4.063,1.801 -6.301,1.965 -3.859,0.274 -7.621,-0.992 -10.594,-3.578 -3.164,-2.75 -5.062,-6.621 -5.355,-10.906" /><path
             id="path118"
             style="fill:#ffffff;fill-opacity:1;fill-rule:nonzero;stroke:none"
             d="m 469.301,762.375 c 14.25,1.805 29.89,2.512 46.906,2.063 0,0 11.043,-1.157 11.18,-1.168 0,0 1.351,-0.036 1.359,-0.036 3.887,0.274 6.817,3.84 6.535,7.954 -0.195,3 -2.078,5.558 -4.777,6.519 -0.262,0.098 -0.445,0.289 -0.684,0.414 -21.047,2.317 -44.769,2.387 -69.218,0.184 -14.911,-1.352 -32.141,-4.434 -51.301,-9.141 4.625,-3.66 7.457,-9.336 7.457,-16.137 0,-0.343 -0.051,-0.695 -0.059,-1.039 16.457,4.485 34.375,8.071 52.602,10.387" /><path
             id="path120"
             style="fill:#ffffff;fill-opacity:1;fill-rule:nonzero;stroke:none"
             d="m 364.996,725.57 c 7.258,0.719 14.18,-1.465 19,-5.996 2.223,-2.097 3.914,-4.613 5.035,-7.34 1.66,1.106 3.473,2.188 5.328,3.262 1.047,1.699 1.555,3.684 1.418,5.75 -0.175,2.586 -1.32,4.93 -3.226,6.586 -1.77,1.539 -4.016,2.301 -6.305,2.137 l -4.141,-1.25 c -2.125,-0.649 -4.777,-0.067 -6.128,1.695 -1.348,1.766 -1.817,4.016 -0.641,5.906 l 0.945,1.512 c 1.141,1.793 2.317,3.645 2.235,4.918 -0.239,3.469 -1.508,6.375 -3.578,8.176 -1.68,1.453 -3.778,2.109 -5.719,1.996 l -5.434,-1.109 c -2.164,-0.446 -4.629,0.417 -5.816,2.277 -1.192,1.851 -1.371,4.183 -0.067,5.961 2.133,2.91 3.176,6.535 2.93,10.203 -0.281,4.129 -2.117,7.855 -5.16,10.5 -1.215,1.062 -2.594,1.84 -4.039,2.418 -1.942,0.789 -4.024,1.176 -6.164,1.016 l -3.817,-0.821 c 0.094,0.02 0.145,0.086 0.235,0.106 -5.516,-2.219 -10.75,-4.508 -15.735,-6.84 -0.484,-0.621 -1.07,-1.113 -1.773,-1.469 0.922,-0.48 1.789,-1.055 2.656,-1.656 0.785,-0.543 1.61,-1.024 2.336,-1.664 5.32,-4.625 8.52,-11.102 9,-18.231 0.035,-0.515 0.051,-1.008 0.051,-1.492 0,-0.91 -0.356,-1.558 -0.457,-2.394 6.308,0.406 12.43,-1.668 17.254,-5.864 5.047,-4.379 8.078,-10.523 8.535,-17.293 0.016,-0.207 0.019,-0.422 0.019,-0.636 0,-0.227 -0.125,-0.504 -0.136,-0.746 0.461,0.089 0.898,0.328 1.359,0.382" /><path
             id="path122"
             style="fill:#ffffff;fill-opacity:1;fill-rule:nonzero;stroke:none"
             d="m 533.023,747.719 c -0.109,0.832 -0.457,1.48 -0.457,2.394 0,0.485 0.016,0.981 0.043,1.485 0.039,0.543 0.2,1.054 0.266,1.586 -1.082,-0.297 -2.199,-0.512 -3.359,-0.594 0,0 -3.516,0.105 -3.383,0.09 0,0 -1.879,0.195 -4.035,0.418 0.394,-1.27 0.679,-2.621 0.777,-4.059 0.066,-1.031 0.047,-2.027 -0.062,-2.992 3.222,1.266 6.671,1.898 10.21,1.672" /><path
             id="path124"
             style="fill:#ffffff;fill-opacity:1;fill-rule:nonzero;stroke:none"
             d="m 311.492,606.004 c 0.281,-0.609 0.235,-1.227 0.617,-1.797 0.532,-0.793 1.903,-2.16 3.567,-2.73 -0.559,1.582 -0.965,2.976 -1.227,4.41 -0.941,-0.114 -1.922,-0.098 -2.957,0.117" /><path
             id="path126"
             style="fill:#ffffff;fill-opacity:1;fill-rule:nonzero;stroke:none"
             d="m 483.348,336.414 -1.012,-0.851 C 475.926,330 469.297,324.242 461.867,319.633 438.5,305.133 402.434,291.199 376.078,282 c 0,0 -1.457,-0.441 -2.613,-0.785 -0.375,-0.156 -0.738,-0.281 -1.133,-0.348 -0.117,-0.031 -0.199,-0.054 -0.23,-0.066 -2.434,-0.602 -4.196,-2.977 -4.196,-5.637 0,-2.605 1.637,-4.871 3.989,-5.562 50.464,7.898 83.726,24.898 109.871,40.972 4.675,2.903 8.562,6.707 12.675,10.739 l 1.493,1.328 c -6.075,2.273 -10.754,7.382 -12.586,13.773" /><path
             id="path128"
             style="fill:#ffffff;fill-opacity:1;fill-rule:nonzero;stroke:none"
             d="m 350.613,256.25 c -1.984,0 -3.89,-0.719 -5.488,-1.859 -0.41,-0.481 -0.859,-0.895 -1.383,-1.192 -1.703,-1.738 -2.804,-4.031 -2.804,-6.445 0,-3.133 1.488,-5.977 3.953,-7.719 43.765,2.422 105.425,18.735 154.953,49.473 l 4.859,3.008 14.5,9.39 c -6.742,2.887 -11.738,9.074 -13.012,16.637 l -4.289,-3.848 c -4.347,-4.257 -8.836,-8.66 -14.535,-12.187 C 456.563,282.57 416.281,262.387 350.613,256.25" /><path
             id="path130"
             style="fill:#ffffff;fill-opacity:1;fill-rule:nonzero;stroke:none"
             d="m 370.102,318.336 c -1.239,-7.406 -6.012,-13.551 -12.524,-16.52 4.797,-3.386 9.695,-6.66 14.672,-9.839 0.309,0.101 0.531,0.164 0.535,0.164 7.223,2.519 14.039,5.027 20.625,7.527 -2.484,1.461 -4.492,2.637 -4.492,2.645 -5.684,3.519 -10.184,7.925 -14.523,12.179 l -4.293,3.844" /><path
             id="path132"
             style="fill:#ffffff;fill-opacity:1;fill-rule:nonzero;stroke:none"
             d="m 406.043,304.59 c 7.375,2.961 14.23,5.887 20.574,8.758 -3.941,2.125 -7.84,4.379 -12.191,7.078 -7.43,4.613 -14.063,10.375 -20.469,15.941 l -1.008,0.84 c -1.832,-6.394 -6.508,-11.5 -12.578,-13.773 l 1.484,-1.325 c 4.114,-4.027 7.997,-7.836 12.665,-10.726 l 11.523,-6.793" /><path
             id="path134"
             style="fill:#ffffff;fill-opacity:1;fill-rule:nonzero;stroke:none"
             d="m 447.684,364.648 c 0,2.446 0.636,5.168 1.515,7.786 -2.148,-0.188 -4.398,-0.27 -6.824,-0.2 -2.402,0.086 -4.57,0.282 -6.641,0.536 1.168,-3.02 2.09,-6.207 2.09,-8.817 0,-14.812 -11.445,-26.824 -25.726,-27.496 -0.399,-0.098 -0.809,-0.152 -1.219,-0.152 0.07,0 0.133,0.035 0.207,0.035 -0.164,-0.024 -0.348,-0.024 -0.512,-0.047 3.082,-2.457 6.231,-4.793 9.477,-6.809 6.695,-4.152 12.23,-7.226 18.711,-10.39 6.613,3.297 12.515,6.515 17.484,9.594 4.238,2.628 8.293,5.8 12.254,9.097 -11.898,2.867 -20.816,13.789 -20.816,26.863" /><path
             id="path136"
             style="fill:#ffffff;fill-opacity:1;fill-rule:nonzero;stroke:none"
             d="m 560.41,528.359 c 0.418,0.789 0.852,1.516 1.309,2.239 -0.539,-0.067 -1.071,-0.153 -1.633,-0.16 -0.074,-0.012 -0.141,-0.047 -0.227,-0.047 0.188,-0.672 0.375,-1.344 0.551,-2.032" /><path
             id="path138"
             style="fill:#ffffff;fill-opacity:1;fill-rule:nonzero;stroke:none"
             d="m 339.746,294.691 c 0,3.543 -1.445,6.829 -3.711,9.438 -0.246,0.254 -0.555,0.457 -0.746,0.766 l -0.305,0.476 c -1.023,0.809 -2.082,1.598 -3.093,2.418 -2.293,1.844 -2.657,5.199 -0.813,7.496 1.848,2.297 5.207,2.656 7.496,0.809 1.223,-0.977 2.485,-1.934 3.723,-2.903 0.086,-0.074 0.195,-0.097 0.277,-0.175 0.02,-0.028 0.035,-0.059 0.059,-0.086 0.597,-0.469 1.195,-0.942 1.797,-1.403 1.34,-0.644 2.742,-1.132 4.238,-1.132 6.141,0 11.141,5.238 11.141,11.675 0,2.586 -0.793,4.743 -2.567,6.996 -0.633,0.801 -1.023,1.766 -1.121,2.786 l -0.125,1.265 c -0.23,2.387 1.164,4.633 3.402,5.492 2.243,0.856 4.782,0.114 6.2,-1.824 1.879,-2.562 4.718,-4.031 7.789,-4.031 5.406,0 9.816,4.629 9.816,10.32 0,0.883 -0.117,1.758 -0.328,2.594 -1.113,0.996 -1.746,2.371 -1.848,3.801 -0.613,0.804 -1.308,1.558 -2.148,2.152 -2.399,1.707 -2.957,5.039 -1.25,7.434 1.707,2.398 5.031,2.957 7.437,1.258 3,-2.141 5.309,-5.036 6.821,-8.329 l 2.57,-2.144 c 0,-0.008 0.004,-0.008 0.004,-0.008 2.336,-1.512 11.453,-3.965 15.109,-3.035 0.422,0.105 0.868,0.164 1.309,0.164 8.984,0 16.277,7.625 16.277,16.992 0,2.133 -2.39,7.91 -4.679,12.082 -4.368,1.692 -8.215,3.774 -12.289,6.02 l -10.704,5.527 -7.261,3.098 c -6.899,2.812 -12.344,5.031 -22.481,13.597 -5.32,4.493 -9.062,8.762 -12.25,13.438 -3.469,-1.641 -7.308,-2.567 -11.219,-2.567 -0.488,0 -0.968,0.067 -1.441,0.204 -1.648,0.461 -3.141,0.98 -4.57,1.527 0.109,-0.977 0.183,-1.887 0.183,-2.578 0,-14.36 -11.293,-25.981 -25.23,-26.238 -1.832,-12.692 -12.063,-22.629 -24.934,-22.629 -2.152,0 -4.195,0.652 -6.254,1.187 -3.777,-8.629 -11.941,-14.058 -22.668,-14.058 -1.144,0 -2.203,0.183 -3.296,0.308 0.406,-0.57 0.695,-1.172 0.855,-1.812 5.68,-9.555 12.445,-19.2 20.258,-28.774 0.633,-0.265 1.222,-0.644 1.73,-1.156 2.582,-2.594 5.977,-4.02 9.555,-4.02 7.613,0 13.809,6.477 13.809,14.434 0,2.535 -0.645,5.039 -1.543,6.738 L 300.906,340 c -2.093,1.98 -2.34,5.359 -0.422,7.516 1.918,2.148 5.098,2.48 7.301,0.629 2.379,-1.993 4.176,-2.625 7.391,-2.625 7.617,0 13.808,6.476 13.808,14.429 0,1.625 -0.312,3.203 -0.812,4.727 -0.215,0.336 -0.43,0.668 -0.43,0.668 -0.566,0.886 -0.84,1.886 -0.84,2.875 0,1.578 0.7,3.133 2.024,4.179 2.144,1.704 5.23,1.493 7.137,-0.472 2.152,-2.219 4.25,-2.938 8.617,-2.938 7.613,0 13.808,6.477 13.808,14.426 0,4.805 -2.281,9.281 -6.09,11.977 -2.402,1.699 -2.976,5.031 -1.273,7.429 1.695,2.407 5.023,2.969 7.426,1.278 6.633,-4.696 10.597,-12.422 10.597,-20.684 0,-13.828 -10.976,-25.09 -24.468,-25.09 -1.68,0 -3.457,0.172 -5.258,0.477 -0.625,-13.278 -11.156,-23.946 -24.246,-23.946 -0.258,0 -0.43,0.102 -0.68,0.106 0.156,-1.141 0.434,-2.254 0.434,-3.418 0,-12.984 -9.7,-23.563 -22.035,-24.844 6.902,-7.312 14.355,-14.547 22.39,-21.605 0.676,-0.227 1.328,-0.582 1.895,-1.102 2.476,-2.273 5.66,-3.527 8.961,-3.527 7.504,0 13.605,6.379 13.605,14.226" /><path
             id="path140"
             style="fill:#ffffff;fill-opacity:1;fill-rule:nonzero;stroke:none"
             d="m 350.117,266.883 c 3.024,0.285 5.934,0.625 8.844,0.972 -1.082,2.219 -1.719,4.704 -1.719,7.309 0,4.262 1.625,8.156 4.235,11.094 -3.766,2.484 -7.493,5.012 -11.149,7.609 -0.359,-11.027 -7.726,-20.179 -17.691,-23.047 2.765,-2.148 5.586,-4.261 8.461,-6.359 2.754,1.496 5.804,2.434 9.019,2.422" /><path
             id="path142"
             style="fill:#ffffff;fill-opacity:1;fill-rule:nonzero;stroke:none"
             d="m 505.773,231.816 c -12.968,-7.531 -26.062,-14.207 -39.093,-20.011 -3.86,-1.715 -7.707,-3.352 -11.551,-4.91 37.187,-11.192 70.625,-13.598 95.719,-6.907 0.535,0.235 0.922,0.7 1.531,0.746 0,0 0.387,0.032 0.543,0.039 7.68,0.075 13.914,6.61 13.914,14.657 0,8.144 -8.086,13.609 -15.356,13.613 -3.988,-0.215 -8.5,-0.23 -13.3,-0.098 -9.844,0.274 -21.039,1.25 -32.407,2.871" /><path
             id="path144"
             style="fill:#ffffff;fill-opacity:1;fill-rule:nonzero;stroke:none"
             d="m 220.273,391.492 -4.328,9.594 c 0,0 -6.804,15.574 -6.855,15.723 0,0 -2.902,8.535 -2.86,8.437 l -6.511,18.832 c -8.078,27.274 -10.164,55.192 -10.617,80.137 -4.676,-4.149 -10.528,-6.668 -16.969,-6.668 -5.61,0 -10.762,1.816 -15.16,5.074 -1.825,1.356 -3.508,2.977 -5.047,4.817 -0.035,-2.153 -0.074,-4.309 -0.074,-6.485 0,-6.527 0.164,-13.137 0.503,-19.808 2.477,-48.793 14.133,-94.145 33.7,-131.137 3.945,-7.391 6.859,-12.723 11.34,-19.344 0,0 21.73,-33.703 21.668,-33.609 6.062,-8.985 18.289,-22.934 25.152,-28.7 0.098,-0.074 0.637,-0.644 0.723,-0.734 l 3.054,-2.953 c 0,0 2.625,-2.145 3.481,-2.844 0.789,-0.472 6.625,-3.961 6.632,-3.988 0.875,-0.445 1.661,-0.832 2.415,-1.195 4.425,-2.11 7.207,-2.735 12.351,-2.418 6.402,0 12.793,4.199 16.203,10.523 l 0.41,0.84 c 1.782,3.617 2.196,4.473 2.602,6.773 -17.52,17.594 -31.836,35.942 -42.477,54.102 -9.218,11.504 -23.144,32.199 -29.336,45.031" /><path
             id="path146"
             style="fill:#ffffff;fill-opacity:1;fill-rule:nonzero;stroke:none"
             d="m 257.598,473.91 c 5.699,2.391 10.562,2.836 16.574,2.918 -2.996,16.707 -4.981,36.848 -5.399,54.121 -3.992,-2.601 -8.656,-4.156 -13.609,-4.156 -4.406,0 -8.57,1.289 -12.254,3.465 1.281,-17.637 4.688,-38.41 9.692,-58.813 1.546,0.953 3.175,1.821 4.996,2.465" /><path
             id="path148"
             style="fill:#ffffff;fill-opacity:1;fill-rule:nonzero;stroke:none"
             d="m 535.359,247.543 c 0,0.574 -0.289,1.559 -0.683,2.625 -4.594,-3.211 -9.328,-6.336 -14.149,-9.395 3.758,-0.378 7.426,-0.668 10.973,-0.875 2.402,1.754 3.859,4.551 3.859,7.645" /><path
             id="path150"
             style="fill:#ffffff;fill-opacity:1;fill-rule:nonzero;stroke:none"
             d="m 307.766,398.98 0.652,0.223 c 0.879,0.309 2.918,0.078 3.828,-0.094 l 2.535,-0.472 c 8.27,0 15,7.027 15,15.664 0,2.383 -1.394,9.531 -2.273,11.742 -1.649,2.012 -3.215,4.344 -4.797,7.113 l -4.668,6.422 c -0.242,0.332 -0.449,0.695 -0.605,1.078 -6.485,15.52 -22.391,25.547 -40.528,25.547 -6.277,0 -10.367,-0.101 -15.465,-2.23 -2.664,-0.946 -4.886,-2.496 -6.832,-4.453 -0.433,-1.188 -1.25,-2.165 -2.386,-2.797 -2.192,-2.883 -4.059,-6.282 -5.899,-9.883 -12.234,-21.027 -10.121,-48.949 3.582,-78.715 0.192,-0.168 0.426,-0.266 0.602,-0.473 2.574,-2.972 6.125,-4.429 10.847,-4.429 7.93,0 13.254,4.328 14.25,11.586 0.266,1.964 1.602,3.613 3.469,4.289 1.863,0.675 3.945,0.261 5.41,-1.082 0,0 0.571,-0.524 1.133,-1.032 1.508,-0.519 3.059,-0.89 4.66,-0.89 7.981,0 14.391,6.594 14.836,14.816 -0.004,0.016 -0.035,0.07 -0.035,0.07 -0.519,0.86 -0.801,1.903 -0.801,2.922 0,0.598 0.094,1.196 0.297,1.754 0.551,1.5 1.672,2.797 3.188,3.324" /><path
             id="path152"
             style="fill:#ffffff;fill-opacity:1;fill-rule:nonzero;stroke:none"
             d="m 158.176,537.008 c 3.476,-5.5 8.363,-8.797 13.957,-8.797 7.84,0 14.613,6.121 16.472,14.879 0.508,2.394 2.586,4.137 5.032,4.219 2.449,0.086 4.636,-1.5 5.308,-3.852 2.157,-7.543 7.836,-15.652 15.2,-15.652 9.886,0 17.347,7.039 17.347,16.386 0,2.504 1.75,4.68 4.207,5.211 2.453,0.524 4.946,-0.726 5.977,-3.011 2.457,-5.426 7.754,-8.934 13.488,-8.934 6.969,0 13.09,5.145 14.57,12.242 0.594,2.879 3.422,4.735 6.305,4.137 2.879,-0.598 4.727,-3.422 4.129,-6.305 -0.168,-0.801 -0.457,-1.554 -0.695,-2.324 -0.762,-19.402 1.582,-47.559 5.644,-68.914 18.645,-2.613 34.422,-14.082 41.735,-30.691 l 4.597,-6.348 c 0.125,-0.156 0.231,-0.332 0.328,-0.508 4.786,-8.465 8.539,-10.883 15.094,-12.844 1.785,0.071 3.527,0.446 5.152,1.067 -1.011,1.914 -2.031,3.894 -3.105,6.047 -9.918,19.859 -13.293,34.089 -12.355,53.207 -0.454,0.027 -0.895,0.031 -1.379,0.09 -1.5,0.179 -2.942,0.632 -4.348,1.269 -0.531,-0.742 -0.926,-1.293 -0.926,-1.293 -4,-4.504 -8.234,-5.523 -11.082,-5.582 -3.879,-0.086 -7.613,1.52 -10.515,4.52 -2.403,2.48 -3.301,5.636 -3.704,8.257 -3.066,0.883 -6.355,2.239 -9.07,4.59 -3.934,3.41 -5.988,7.899 -5.988,13.031 0,0.438 0.015,0.875 0.047,1.321 l 1.554,5.722 1.051,3.301 c 0.574,1.793 1.422,4.25 3.254,4.672 1.824,0.43 3.129,0.953 4.43,-0.398 l 3.543,-3.664 c 0.406,-0.586 1.105,-1.532 1.789,-2.371 0.722,0.683 1.195,1.3 1.195,1.984 0,1.125 -0.945,2.574 -2.769,5.363 -2.563,3.903 -6.063,9.258 -6.657,16.59 l -0.652,6.035 -0.297,3.223 c -3.453,0.426 -6.512,1.777 -8.824,4.047 -1.281,1.261 -2.637,3.144 -3.547,5.769 -5.246,-4.578 -11.949,-7.265 -19.039,-7.265 -11.465,0 -21.164,6.961 -26.004,16.816 -5.391,-5.516 -12.906,-9.07 -21.727,-9.07 -11.32,0 -21.078,6.808 -25.964,16.867 -2.844,-1.098 -5.75,-1.801 -9.137,-1.801 -4.692,0 -10.063,1.074 -15.051,4.477 -2.871,1.961 -5.613,4.707 -8.027,8.484 -2.563,-12.492 -4.446,-25.664 -5.578,-39.355 0.023,-0.118 0.089,-0.2 0.105,-0.321 0.731,-5.75 2.492,-10.656 4.93,-14.523" /><path
             id="path154"
             style="fill:#ffffff;fill-opacity:1;fill-rule:nonzero;stroke:none"
             d="m 243.723,463.121 c -5.45,20.867 -9.293,42.008 -11.024,60.637 -4.84,-4.137 -11.254,-6.613 -18.554,-6.613 -5.598,0 -10.387,2.269 -14.34,5.734 0.492,-23.809 2.566,-50.219 10.14,-75.781 0,0 6.297,-18.215 6.336,-18.313 0,0 2.852,-8.394 2.852,-8.406 0,-0.004 6.437,-14.711 6.437,-14.711 0,0 3.149,-6.996 4.133,-9.18 -4,20.676 -1.875,39.735 7.27,55.453 1.91,3.743 4.082,7.637 6.75,11.18" /><path
             id="path156"
             style="fill:#ffffff;fill-opacity:1;fill-rule:nonzero;stroke:none"
             d="m 695.887,627.613 c -4.844,-3.625 -10.789,-5.793 -17.227,-5.793 -3.086,0 -5.953,0.864 -8.547,1.977 -3.722,-10.902 -12.308,-17.859 -23.8,-17.859 -5.766,0 -11.153,1.976 -15.75,5.21 -3.985,-11.074 -13.743,-18.992 -25.27,-18.992 -9.48,0 -18.254,4.864 -23.465,13.004 -1.582,2.477 -0.863,5.774 1.621,7.36 2.477,1.589 5.778,0.867 7.364,-1.614 3.242,-5.062 8.652,-8.09 14.48,-8.09 9.152,0 16.605,8.582 16.605,19.129 0,2.371 1.567,4.461 3.848,5.121 2.281,0.661 4.719,-0.265 5.984,-2.269 3.25,-5.129 8.704,-8.195 14.583,-8.195 8.363,0 14.023,5.8 15.152,15.515 0.199,1.793 1.297,3.348 2.902,4.153 1.606,0.808 3.508,0.75 5.063,-0.149 2.652,-1.539 6.281,-3.641 9.23,-3.641 4.824,0 9.184,1.965 12.5,5.114 3.75,3.562 6.153,8.629 6.153,14.32 l -0.403,5.824 c -13.469,24.403 -30.824,41.246 -50.703,46.953 -0.16,0.02 -0.414,0.055 -0.684,0.09 -0.988,0.133 -2.437,0.321 -2.691,0.364 -18.957,3.925 -38.863,-8.969 -47.348,-30.649 -1.507,-3.851 -2.496,-6.734 -3.07,-9.926 l -0.426,-2.972 c -1.234,-8.586 -1.972,-13.77 -8.441,-25.336 -2.402,-4.309 -7.27,-10.219 -12.168,-15.598 0.445,-0.41 0.859,-0.867 1.176,-1.394 0.515,-0.891 3.09,-5.481 3.293,-8.559 0.222,-3.441 -0.68,-7.16 -2.434,-10.559 0.664,-2.218 1.117,-4.464 1.117,-6.769 0,-1.09 -0.074,-2.195 -0.222,-3.301 -0.344,-2.562 -0.481,-4.633 -0.481,-6.316 0,-4.387 0.906,-6.114 1.41,-6.731 0.231,-0.273 0.883,-0.863 2.84,-1.086 0.418,0.274 1.192,1.051 1.836,2.168 0.895,1.551 2.672,2.305 4.453,2.414 1.793,0.102 3.672,-0.933 4.742,-2.367 l 0.067,-0.086 c 0.375,0.406 0.769,0.805 1.277,1.086 2.582,1.41 5.82,0.473 7.238,-2.105 3.344,-6.079 9.582,-9.848 16.278,-9.848 9.636,0 17.648,7.527 18.633,17.5 0.156,1.672 1.128,3.019 2.441,3.875 0.516,0.477 1.141,0.859 1.855,1.113 2.778,0.961 5.813,-0.523 6.778,-3.301 2.433,-7.054 9.344,-11.445 18.019,-11.445 8.18,0 15.711,6.504 17.914,15.461 0.411,1.691 1.621,3.063 3.235,3.699 1.621,0.625 3.433,0.438 4.883,-0.523 3.57,-2.363 5.957,-3.563 9.074,-3.563 3.98,0 8.222,1.504 11.758,4.149 4.004,3.004 7.082,7.496 7.656,13.191 0.008,0.11 0.074,0.196 0.094,0.305 -3.02,11.504 -6.633,22.293 -10.797,32.211 -2.098,-4.922 -5.453,-9.141 -9.625,-12.27" /><path
             id="path158"
             style="fill:#ffffff;fill-opacity:1;fill-rule:nonzero;stroke:none"
             d="m 526.008,292.609 -15.692,-10.156 -4.847,-3.008 C 453.172,247 387.563,230.109 342.199,228.223 c -6.082,-0.254 -11.828,-0.266 -17.097,0.027 -7.551,0 -15.641,-5.469 -15.641,-13.609 0,-8.047 6.238,-14.586 13.922,-14.657 0.152,-0.011 0.539,-0.043 0.539,-0.043 0.609,-0.043 1,-0.511 1.527,-0.746 28.742,-7.672 67.746,-3.289 109.449,11.328 24.946,8.739 50.848,21.133 76.11,36.813 11.539,7.156 22.441,14.762 32.672,22.691 -9.832,2.809 -17.117,11.754 -17.672,22.582" /><path
             id="path160"
             style="fill:#ffffff;fill-opacity:1;fill-rule:nonzero;stroke:none"
             d="m 696.801,579.363 c -3.719,0 -6.711,0.989 -9.449,2.278 -4.954,-10.352 -14.586,-17.344 -25.657,-17.344 -8.605,0 -16.25,3.164 -21.64,8.484 -4.907,-9.726 -14.774,-16.234 -26.086,-16.234 -8.199,0 -15.91,3.558 -21.406,9.562 -0.575,-4.785 -2.59,-7.812 -4.434,-9.621 -2.305,-2.273 -5.359,-3.621 -8.82,-4.05 l -0.293,-3.188 -0.653,-6.066 c -0.593,-7.336 -4.101,-12.684 -6.656,-16.598 -1.824,-2.789 -2.777,-4.238 -2.777,-5.359 0,-0.688 0.476,-1.305 1.195,-1.977 0.688,0.836 1.395,1.781 1.793,2.359 l 3.531,3.664 c 1.305,1.356 2.61,0.836 4.434,0.407 1.836,-0.426 2.687,-2.875 3.258,-4.664 l 1.054,-3.317 1.563,-5.719 c 0.019,-0.449 0.039,-0.886 0.039,-1.324 0,-5.152 -2.067,-9.644 -6.031,-13.058 -2.707,-2.332 -5.981,-3.684 -9.024,-4.559 -0.41,-2.625 -1.308,-5.781 -3.707,-8.262 -2.906,-3 -6.64,-4.601 -10.515,-4.519 -2.551,0.058 -6.211,0.902 -9.821,4.297 -0.937,-0.364 -1.898,-0.621 -2.883,-0.785 -2.113,-16.415 -6.191,-36.508 -17.183,-54.727 -0.809,-1.355 -1.602,-2.605 -2.379,-3.813 0.691,-0.289 1.633,-0.277 3.414,-0.242 0,0 0.77,0.012 1.457,0.016 6.758,1.976 10.535,4.351 15.395,12.953 0.101,0.176 0.21,0.348 0.328,0.512 0,0 4.789,6.59 4.566,6.261 11.274,18.157 26.75,28.903 44.047,30.926 4.644,22.961 6.836,47.961 6.023,69.485 -0.414,1.14 -0.804,2.289 -1.054,3.507 -0.598,2.883 1.254,5.704 4.136,6.301 2.887,0.598 5.707,-1.254 6.305,-4.136 0.141,-0.668 0.359,-1.305 0.578,-1.926 0.153,-0.289 0.223,-0.602 0.324,-0.914 2.321,-5.578 7.668,-9.403 13.661,-9.403 5.738,0 11.031,3.508 13.48,8.93 1.039,2.293 3.527,3.539 5.988,3.012 2.446,-0.524 4.203,-2.699 4.203,-5.207 0,-9.348 7.461,-16.383 17.348,-16.383 7.363,0 13.047,8.109 15.203,15.644 0.672,2.348 2.864,3.942 5.313,3.86 2.445,-0.082 4.519,-1.824 5.027,-4.223 1.856,-8.762 8.633,-14.879 16.469,-14.879 5.219,0 10.328,3.067 13.98,7.489 3.129,3.8 5.203,8.589 5.203,13.468 0,0.016 0.016,0.039 0.016,0.071 -1.055,13.964 -2.887,27.414 -5.422,40.175 -2.433,-2.922 -5.371,-5.316 -8.574,-7.125 -4.652,-2.636 -9.863,-4.039 -14.867,-4.039" /><path
             id="path162"
             style="fill:#ffffff;fill-opacity:1;fill-rule:nonzero;stroke:none"
             d="m 706.465,518.664 c -5.957,0 -11.406,2.164 -15.895,5.774 -0.929,-29.493 -4.836,-56.106 -11.687,-79.254 -2.688,-9.063 -6.906,-22.598 -11.742,-35.61 v -0.004 c -4.203,-11.304 -8.063,-20.011 -11.481,-25.879 -7.836,-13.5 -23.539,-35.359 -35.734,-49.753 -0.453,-0.54 -1,-0.942 -1.582,-1.25 -9.051,-13.329 -20.028,-26.598 -32.641,-39.461 -0.113,-1.164 -0.195,-2.239 -0.195,-3.176 0,-2.992 0.551,-5.121 1.305,-8.024 0,0 0.339,-1.343 0.578,-2.3 3.355,-5.918 9.445,-9.614 16.066,-9.614 0.281,0 0.559,-0.019 0.84,-0.07 2.156,-0.34 3.836,-0.43 5.387,-0.258 2.562,0.285 4.773,1.293 8.211,3.063 0,0 6.402,3.836 6.929,4.148 0.867,0.711 3.68,3.008 3.68,3.008 l 2.695,2.574 c 0.082,0.082 0.789,0.879 0.875,0.953 6.856,5.754 19.082,19.699 25.086,28.598 0,0 21.738,33.703 21.805,33.801 4.461,6.593 8.687,13.629 12.566,20.89 20.414,38.243 32.09,83.813 34.707,135.434 0.34,6.676 0.504,13.289 0.504,19.816 0,1.895 -0.035,3.77 -0.062,5.649 -1.571,-1.586 -3.289,-2.996 -5.121,-4.227 -4.52,-3.012 -9.711,-4.828 -15.094,-4.828" /><path
             id="path164"
             style="fill:#ffffff;fill-opacity:1;fill-rule:nonzero;stroke:none"
             d="m 169.957,593.918 c 3.922,-4.262 8.316,-5.016 11.84,-5.016 3.484,0 5.715,0.703 8.836,2.778 1.445,0.957 3.269,1.152 4.883,0.515 1.617,-0.629 2.824,-2.007 3.238,-3.691 2.121,-8.633 9.582,-14.66 18.144,-14.66 9.325,0 16.582,5.113 18.489,13.023 0.633,2.625 3.129,4.36 5.812,4.047 2.684,-0.32 4.699,-2.598 4.699,-5.301 0,-10.761 8.407,-19.515 18.731,-19.515 6.707,0 12.937,3.773 16.273,9.843 1.086,1.981 3.246,2.969 5.36,2.696 1.07,1.422 2.937,2.449 4.715,2.343 1.789,-0.109 3.558,-0.863 4.457,-2.41 0.648,-1.125 1.418,-1.906 1.832,-2.179 1.961,0.226 2.613,0.812 2.839,1.093 0.5,0.614 1.415,2.34 1.415,6.731 0,1.683 -0.133,3.758 -0.477,6.312 -0.148,1.11 -0.223,2.207 -0.223,3.297 0,2.309 0.45,4.559 1.11,6.774 -1.75,3.398 -2.653,7.113 -2.434,10.55 0.211,3.118 2.785,7.68 3.305,8.567 0.515,0.894 1.265,1.617 2.133,2.105 -3.973,4.59 -7.727,9.469 -9.883,13.325 -6.469,11.57 -7.207,16.753 -8.438,25.335 0,0 -0.406,2.797 -0.406,2.821 -0.602,3.355 -1.59,6.238 -3.094,10.082 -8.484,21.68 -28.39,34.574 -47.726,30.586 0,0 -2.242,-0.297 -3,-0.391 -0.203,-0.055 -0.399,-0.14 -0.598,-0.195 -19.691,-5.903 -36.887,-22.719 -50.238,-47 -0.016,-0.457 -0.238,-5.16 -0.274,-5.184 0.481,-6.109 2.504,-11.062 5.719,-14.492 3.231,-3.441 7.656,-5.344 12.945,-5.344 3.168,0 6.297,0.836 9.043,2.43 1.555,0.902 3.461,0.957 5.071,0.156 1.605,-0.808 2.691,-2.371 2.902,-4.152 1.059,-9.231 6.508,-14.309 15.328,-14.309 5.887,0 11.336,3.059 14.586,8.196 1.266,2.004 3.707,2.929 5.988,2.265 2.278,-0.656 3.844,-2.742 3.844,-5.121 0,-10.551 7.449,-19.125 16.606,-19.125 5.832,0 11.242,3.027 14.48,8.082 1.586,2.485 4.879,3.207 7.359,1.621 2.485,-1.582 3.207,-4.883 1.618,-7.359 -5.203,-8.145 -13.973,-13.004 -23.457,-13.004 -11.528,0 -21.286,7.918 -25.266,18.988 -4.602,-3.238 -9.988,-5.207 -15.758,-5.207 -11.93,0 -20.496,6.586 -24.097,17.192 -2.676,-0.805 -5.434,-1.317 -8.247,-1.317 -6.82,0 -12.789,2.235 -17.597,6.071 -3.91,3.117 -7.031,7.293 -9.067,12.441 -3.976,-9.414 -7.48,-19.59 -10.422,-30.441 0.04,-0.106 0.114,-0.184 0.141,-0.293 1.817,-7.118 4.281,-11.653 6.961,-14.559" /><path
             id="path166"
             style="fill:#ffffff;fill-opacity:1;fill-rule:nonzero;stroke:none"
             d="m 573.047,337.242 c -0.363,-1.441 -1.016,-4.465 -1.016,-6.492 0,-7.953 6.192,-14.43 13.801,-14.43 3.582,0 6.981,1.426 9.563,4.02 0.476,0.476 1.043,0.824 1.628,1.086 8.309,10.172 15.461,20.441 21.372,30.617 -1.141,-0.164 -2.29,-0.27 -3.457,-0.27 -12.071,0 -20.61,5.739 -23.907,14.907 -1.593,-0.317 -3.144,-0.91 -4.793,-0.91 -12.453,0 -22.375,9.332 -24.695,21.421 l -0.027,-0.003 c -14.149,0 -25.661,11.808 -25.661,26.32 0,0.719 0.11,1.637 0.278,2.625 -1.453,-0.567 -2.981,-1.106 -4.66,-1.574 -0.446,-0.129 -0.989,-0.2 -1.45,-0.2 l -2.121,-0.027 c -3.839,-0.082 -6.972,0.109 -9.957,2.238 -3.691,-4.476 -7.578,-8.277 -12.562,-12.722 -5.754,-5.145 -9.43,-7.914 -16.391,-12.36 L 481,386.137 c -6.211,-4.266 -12,-8.157 -18.828,-10.754 -1.93,-3.426 -3.82,-8.215 -3.82,-10.735 0,-9.371 7.304,-16.996 16.281,-16.996 3.047,0 6.012,0.883 8.59,2.563 0.011,0.012 0.023,0.012 0.043,0.015 l 1.144,0.961 c 1.508,3.293 3.824,6.188 6.828,8.325 2.399,1.707 5.723,1.148 7.43,-1.25 1.707,-2.399 1.148,-5.727 -1.25,-7.438 -0.836,-0.59 -1.531,-1.344 -2.141,-2.156 -0.105,-1.422 -0.742,-2.797 -1.855,-3.789 -0.211,-0.84 -0.328,-1.715 -0.328,-2.602 0,-5.691 4.402,-10.316 9.816,-10.316 3.074,0 5.91,1.469 7.789,4.031 1.418,1.93 3.957,2.68 6.188,1.828 2.25,-0.859 3.64,-3.101 3.41,-5.492 l -0.113,-1.258 c -0.098,-1.023 -0.489,-1.992 -1.121,-2.801 -1.774,-2.253 -2.571,-4.41 -2.571,-6.992 0,-6.441 5,-11.679 11.137,-11.679 l 1.93,-0.036 c 1.453,-0.054 1.453,-0.054 2.074,0.364 0.254,0.164 0.519,0.308 0.793,0.433 l 1.597,0.7 c 2.211,0.976 4.805,0.332 6.313,-1.563 1.512,-1.895 1.547,-4.578 0.102,-6.516 -1.504,-2.011 -3.891,-6.257 -3.891,-9.086 0,-7.843 6.105,-14.226 13.609,-14.226 3.301,0 6.489,1.254 8.961,3.531 0.563,0.508 1.203,0.867 1.871,1.102 5.223,4.582 10.2,9.25 14.957,13.968 0.504,1.024 1.313,1.793 2.301,2.309 1.75,1.77 3.457,3.547 5.137,5.332 -12.328,1.277 -22.016,11.859 -22.016,24.836 0,0.918 0.106,2.098 0.258,3.328 -0.176,0 -0.312,-0.012 -0.504,-0.012 -13.058,0 -23.543,10.618 -24.219,23.836 -1.699,-0.242 -3.429,-0.363 -5.289,-0.363 -13.492,0 -24.465,11.25 -24.465,25.09 0,8.254 3.961,15.992 10.602,20.676 2.406,1.699 5.73,1.129 7.43,-1.278 1.703,-2.402 1.129,-5.73 -1.278,-7.425 -3.816,-2.696 -6.089,-7.176 -6.089,-11.973 0,-7.957 6.191,-14.434 13.8,-14.434 4.707,0 5.805,0.332 7.797,2.387 1.57,1.625 3.985,2.086 6.035,1.145 2.051,-0.93 3.293,-3.051 3.098,-5.301 l -0.07,-0.863 c -0.035,-0.461 -0.133,-0.911 -0.293,-1.348 -0.575,-1.61 -0.867,-3.309 -0.867,-5.055 0,-7.957 6.199,-14.433 13.808,-14.433 3.512,0 3.512,0 5.34,1.531 2.019,1.699 4.973,1.66 6.953,-0.082 1.184,-1.047 1.801,-2.512 1.801,-4 0,-1 -0.281,-2 -0.852,-2.887 0,0 -0.789,-1.23 -1.316,-2.047" /><path
             id="path168"
             style="fill:#ffffff;fill-opacity:1;fill-rule:nonzero;stroke:none"
             d="m 596.715,465.191 c -0.078,0.02 -0.125,0.063 -0.195,0.082 -19.719,-1.39 -32.239,-16.808 -38.266,-26.484 l -4.649,-6.406 c -1.062,-1.863 -2.128,-3.5 -3.21,-5.004 -0.016,-0.047 -0.008,-0.086 -0.028,-0.117 -1.199,-2.672 -3.824,-11.754 -3.851,-13.754 0,-8.633 6.73,-15.664 15,-15.664 l 4.125,0.597 c 2.093,0.305 4.547,-0.578 5.668,-2.371 0.629,-1.011 1,-2.148 1,-3.257 0,-0.856 -0.231,-1.692 -0.735,-2.45 0.864,-7.789 6.981,-13.933 14.664,-13.933 1.832,0 3.621,0.343 5.301,1.008 l 1.301,0.515 c 1.637,0.652 3.5,0.449 4.957,-0.543 1.465,-0.992 2.344,-2.644 2.344,-4.418 0,0 0,-0.23 0,-0.453 1.3,-8.762 9.804,-10.105 14.797,-10.105 4.234,0 8.296,1.89 11.144,5.175 0.176,0.211 0.43,0.317 0.637,0.496 13.34,29.395 15.386,57.098 3.113,78.2 -3.797,7.437 -7.797,14.324 -15.254,16.984 -4.812,2.016 -8.894,2.125 -15.113,2.125 -0.875,-0.281 -1.789,-0.43 -2.75,-0.223" /><path
             id="path170"
             style="fill:#ffffff;fill-opacity:1;fill-rule:nonzero;stroke:none"
             d="m 646.449,389.051 c 3.11,5.355 6.707,13.504 10.699,24.234 v 0.004 c 4.731,12.734 8.872,26.02 11.508,34.922 6.617,22.352 10.395,48.156 11.27,76.855 -4.164,-4.062 -9.328,-6.808 -15.473,-6.808 -7.234,0 -13.601,2.426 -18.426,6.5 -1.679,-20.727 -5.605,-42.422 -11.621,-63.731 -0.078,-0.273 -0.258,-0.468 -0.371,-0.718 1.985,-2.914 3.664,-5.977 5.149,-8.899 10.867,-18.668 11.824,-41.875 4.562,-66.816 0.965,1.554 1.899,3.07 2.703,4.457" /><path
             id="path172"
             style="fill:#ffffff;fill-opacity:1;fill-rule:nonzero;stroke:none"
             d="m 610.25,531.762 c -0.281,-18.028 -2.305,-37.442 -5.844,-55.758 5,-0.168 9.239,-0.77 14.02,-2.777 2.695,-0.957 5.058,-2.274 7.172,-3.825 5.523,20.903 9.004,42.036 10.203,62.051 -3.715,-2.215 -7.914,-3.539 -12.367,-3.539 -4.782,0 -9.286,1.426 -13.184,3.848" /><path
             id="path174"
             style="fill:#ffffff;fill-opacity:1;fill-rule:nonzero;stroke:none"
             d="m 563.68,553.051 c 0,-0.735 0.265,-0.977 0.547,-1.25 0.086,0.058 1.246,0.918 1.246,0.918 0.957,0.703 2.082,0.785 3.222,0.601 0.024,0.258 0.047,0.457 0.059,0.629 -1.578,0.653 -3.094,1.504 -4.555,2.531 -0.308,-1.523 -0.519,-2.734 -0.519,-3.429" /><path
             id="path176"
             style="fill:#ffffff;fill-opacity:1;fill-rule:nonzero;stroke:none"
             d="m 534.5,616.16 c -1.457,0.867 -2.66,2.094 -3.637,3.59 -0.121,0.184 -0.242,0.363 -0.351,0.559 -0.461,0.773 -0.887,1.597 -1.258,2.492 -0.156,-0.418 -0.352,-0.922 -0.559,-1.457 1.379,-1.977 2.696,-4.489 3.692,-7.649 0.023,-0.054 0.039,-0.113 0.058,-0.168 0.45,-1.457 0.809,-3.058 1.09,-4.797 0.055,-0.339 0.094,-0.687 0.145,-1.039 0.238,-1.793 0.41,-3.679 0.41,-5.781 0,0 -0.363,-2.531 -0.676,-4.668 -0.019,-0.109 -0.035,-0.222 -0.047,-0.34 2.196,-4.621 4.321,-5.222 6.153,-5.222 0.64,0 1.289,0.074 1.953,0.23 0.66,0.149 1.32,0.371 1.972,0.664 1.309,0.578 2.567,1.434 3.664,2.496 h 0.008 c 0.008,0.016 2.055,2.621 2.059,2.641 l 1.402,3.223 c 0.004,0.023 0.016,0.062 0.031,0.089 0.149,0.567 0.137,1.059 0.223,1.59 0.133,0.793 0.316,1.606 0.328,2.371 0,0.071 -0.015,0.157 -0.019,0.231 -0.008,0.879 -0.114,1.777 -0.278,2.715 -0.05,0.277 -0.093,0.562 -0.156,0.847 -0.203,0.973 -0.453,1.993 -0.781,3.161 -0.074,0.273 -0.137,0.503 -0.215,0.789 0,0 -0.766,2.632 -0.766,2.652 l -1.855,3.531 c -0.09,0.137 -0.156,0.192 -0.242,0.324 -0.61,-0.894 -1.246,-1.664 -1.934,-2.296 -1.375,-1.278 -2.922,-2.016 -4.652,-2.188 -0.867,-0.082 -1.778,-0.023 -2.735,0.188 -0.906,0.195 -1.714,0.531 -2.48,0.921 -0.188,0.102 -0.367,0.2 -0.547,0.301" /><path
             id="path178"
             style="fill:#ffffff;fill-opacity:1;fill-rule:nonzero;stroke:none"
             d="m 539.469,628.297 0.949,2.383 c 0.738,1.859 2.117,2.441 4.109,2.629 0.121,0.007 0.246,0.015 0.368,0.015 -0.079,0.188 -1.278,3.114 -1.278,3.114 -2.601,6.382 -4.441,10.289 -6.797,12.882 0.012,-0.41 0.043,-1.312 0.043,-1.312 0.082,-4.867 0.391,-16.227 2.25,-20.742 0.129,0.375 0.282,0.8 0.356,1.031" /><path
             id="path180"
             style="fill:#ffffff;fill-opacity:1;fill-rule:nonzero;stroke:none"
             d="m 559.375,492.203 c 0.297,0.305 0.98,1.395 1.078,5.02 0.067,2.722 2.613,5.183 5.328,5.402 0.086,0.012 7.364,1.305 8.817,6.359 -0.993,-0.629 -2.067,-1.121 -3.278,-1.304 0,0 -5.746,1.488 -5.754,1.488 -1.332,1.023 -2.429,2.031 -3.359,3.035 -0.109,-1.668 -0.289,-3.387 -0.637,-5.207 -1.148,-6.141 -3.386,-11.523 -6.343,-15.562 0.48,-0.278 0.984,-0.5 1.519,-0.512 1.188,-0.024 2.164,0.793 2.629,1.281" /><path
             id="path182"
             style="fill:#ffffff;fill-opacity:1;fill-rule:nonzero;stroke:none"
             d="m 554.578,542.176 c 2.809,-1.211 5.75,-1.469 7.367,-0.719 -1.179,0.309 -2.476,0.477 -3.355,1.047 -4.281,2.758 -5.524,6.535 -5.524,10.457 0,2.977 0.723,6.059 1.372,8.84 l 0.121,0.578 c 0.113,0.527 0.293,1.375 0.476,2.242 l 0.363,1.766 c -3.125,5.082 -5.523,10.886 -7.457,16.578 -2.714,-1.242 -5.578,-1.953 -8.421,-1.953 -1.125,0 -2.192,0.133 -3.231,0.328 1.441,-1.492 2.598,-3.567 2.598,-6.781 0,-0.532 -0.035,-1.09 -0.094,-1.68 -0.543,-5.035 -3.117,-7.387 -5.176,-8.465 -1.301,-0.684 -2.637,-0.851 -3.933,-0.93 0.207,-1.691 0.546,-3.187 1.203,-3.742 l 0.461,-0.254 c 1.965,-1 5.793,-0.558 8.078,-0.297 l 2.894,0.243 c 1.422,0.113 2.61,-0.356 3.692,-1.286 1.078,-0.925 1.523,-2.253 1.625,-3.675 0.453,-6.36 2.242,-9.914 5.988,-11.887 0,0 0.496,-0.215 0.953,-0.41" /><path
             id="path184"
             style="fill:#ffffff;fill-opacity:1;fill-rule:nonzero;stroke:none"
             d="m 327.707,554.922 c 0.102,1.418 0.547,2.75 1.625,3.68 1.086,0.921 2.27,1.394 3.691,1.273 l 2.938,-0.246 c 2.23,-0.266 6.875,-0.813 8.473,0.535 l 0.339,0.445 c 0.504,0.786 0.754,2.008 0.907,3.321 -1.301,0.07 -2.645,0.246 -3.946,0.925 -2.062,1.086 -4.64,3.43 -5.183,8.465 -0.059,0.594 -0.094,1.157 -0.094,1.684 0,3.195 1.156,5.266 2.598,6.762 -1.016,-0.176 -2.078,-0.309 -3.231,-0.309 -2.289,0 -5.203,0.578 -8.242,2.492 -1.973,-5.871 -4.41,-11.879 -7.637,-17.125 l 0.164,-0.789 c 0.364,-1.726 0.793,-3.793 0.793,-3.793 0.657,-2.781 1.379,-5.851 1.379,-8.84 0,-3.914 -1.246,-7.687 -5.527,-10.461 -0.895,-0.57 -2.211,-0.757 -3.414,-1.058 1.812,-0.875 5.465,-0.383 8.379,1.14 0,0 0.715,0.477 1.008,0.672 3.039,2.082 4.574,5.539 4.98,11.227" /><path
             id="path186"
             style="fill:#ffffff;fill-opacity:1;fill-rule:nonzero;stroke:none"
             d="m 273.078,705.934 c 6.445,-2.532 12.746,-3.153 18.723,-1.731 0.355,0.086 1.031,0.141 1.394,0.152 l 5.5,0.161 10.711,0.172 c 8.852,-0.965 29.555,-4.594 35.914,-16.997 -0.062,0.079 -0.054,0.153 -0.125,0.239 0.203,-0.25 0.344,-0.547 0.496,-0.832 2.379,-3.352 2.723,-6.457 2.907,-9.2 l 0.047,-0.503 c 6.125,6.785 14.445,11.664 23.457,12.964 0.539,0.071 1.148,0.125 1.722,0.18 5.977,5.371 6.231,10.629 6.117,12.711 0.137,3.465 -0.992,6.426 -3.257,8.566 -2.571,2.411 -6.442,3.563 -10.551,3.157 -1.832,-0.219 -5.028,-1.879 -6.738,-2.766 l -1.411,-0.719 c -2.011,-1.035 -4.394,-0.66 -6.035,0.887 -1.644,1.543 -2.086,3.98 -1.179,6.043 1.242,2.832 2.359,6.395 2.347,7.434 -0.265,3.914 -2.004,7.457 -4.894,9.972 -2.715,2.356 -6.145,3.52 -9.668,3.262 -2.278,-0.168 -4.41,-0.883 -6.328,-2.148 -2.098,-1.387 -4.879,-1.11 -6.672,0.648 -1.793,1.769 -2.106,4.547 -0.754,6.664 2.109,3.313 3.144,5.555 2.933,8.645 -0.289,4.277 -2.191,8.152 -5.355,10.906 -2.352,2.043 -5.203,3.226 -8.203,3.504 -0.793,0.082 -1.578,0.121 -2.391,0.074 -2.242,-0.168 -4.367,-0.832 -6.301,-1.973 -0.484,-0.281 -1.011,-0.406 -1.539,-0.531 -11.207,-6.75 -20.218,-13.664 -26.757,-20.387 -8.133,-8.367 -12.45,-16.445 -12.45,-23.531 0,-1.121 0.11,-2.223 0.332,-3.305 0.879,-4.285 3.645,-8.207 8.008,-11.718" /><path
             id="path188"
             style="fill:#ffffff;fill-opacity:1;fill-rule:nonzero;stroke:none"
             d="m 317.934,530.922 c -1.407,-0.156 -2.832,-0.16 -4.246,-0.016 1.265,-2.054 2.289,-4.39 2.792,-6.961 0.352,2.43 0.872,4.739 1.454,6.977" /><path
             id="path190"
             style="fill:#ffffff;fill-opacity:1;fill-rule:nonzero;stroke:none"
             d="m 309.895,553.152 c 0,0 1.136,-0.843 1.222,-0.906 0.281,0.274 0.547,0.52 0.547,1.246 0,0.699 -0.207,1.914 -0.523,3.438 -1.45,-1.02 -2.965,-1.86 -4.551,-2.52 0.019,-0.172 0.039,-0.375 0.062,-0.64 1.145,0.179 2.278,0.093 3.243,-0.618" /><path
             id="path192"
             style="fill:#ffffff;fill-opacity:1;fill-rule:nonzero;stroke:none"
             d="m 300.871,509.332 c 1.645,-4.984 8.617,-6.254 8.703,-6.258 2.711,-0.226 5.246,-2.683 5.321,-5.41 0.093,-3.625 0.781,-4.715 1.074,-5.016 0.476,-0.492 1.445,-1.308 2.629,-1.277 1.316,0.027 2.547,1.098 3.332,1.996 0,0 0.488,0.672 0.883,1.223 -3.657,5.187 -5.329,11.359 -6.024,15.035 0,0.012 -0.004,0.023 -0.004,0.031 -0.492,2.641 -0.726,5.102 -0.758,7.438 -1.031,-2.403 -2.894,-4.906 -6.242,-7.481 l -5.762,-1.484 c -1.152,0.176 -2.195,0.621 -3.152,1.203" /><path
             id="path194"
             style="fill:#ffffff;fill-opacity:1;fill-rule:nonzero;stroke:none"
             d="m 294.18,566.273 c 0.222,-0.523 0.175,-1.414 0.515,-1.742 1.278,-1.258 3.453,-1.246 4.555,-1.136 0,0 0.715,0.14 0.781,0.148 3.699,0.594 6.934,2.969 9.899,7.246 0.047,0.074 0.09,0.16 0.14,0.242 0.903,1.332 1.75,2.785 2.535,4.321 0.59,1.156 1.125,2.371 1.657,3.605 0.172,0.402 0.363,0.785 0.531,1.195 1.352,3.305 2.52,6.778 3.59,10.133 -0.09,0.008 -0.156,0.012 -0.238,0.016 l -0.536,0.058 c 0.282,-0.027 -0.281,-0.019 0,0 -0.726,-0.046 -1.433,0.051 -2.136,0.18 -1.313,0.125 -2.582,0.426 -3.813,0.895 0.332,-2.633 0.524,-5.059 0.524,-7.239 0,-5.949 -1.254,-10.308 -3.817,-13.453 -2.484,-3.039 -6.086,-4.742 -10.719,-5.062 -1.277,-0.082 -2.382,0.238 -3.468,0.593" /><path
             id="path196"
             style="fill:#ffffff;fill-opacity:1;fill-rule:nonzero;stroke:none"
             d="m 545.613,774.094 c 0.082,-0.43 0.133,-0.867 0.188,-1.305 0.422,0.238 0.887,0.379 1.32,0.594 -0.492,0.238 -1.008,0.476 -1.508,0.711" /><path
             id="path198"
             style="fill:#ffffff;fill-opacity:1;fill-rule:nonzero;stroke:none"
             d="m 389.402,772.703 c 0.391,1.008 1.039,1.867 1.965,2.481 1.219,1.929 2.059,4.101 2.336,6.441 0.461,3.832 -0.613,7.438 -3.012,10.137 -0.41,0.465 -0.898,0.828 -1.378,1.226 -2.508,2.106 -5.829,3.301 -9.625,3.301 -0.036,0 -0.063,0.012 -0.094,0.012 -6.61,-1.887 -12.989,-3.867 -19.106,-5.949 0.735,-0.508 1.496,-0.954 2.18,-1.551 0.59,-0.512 1.055,-1.133 1.598,-1.696 4.183,-4.351 6.785,-9.953 7.199,-16.132 0.047,-0.594 0.062,-1.196 0.062,-1.782 0,-1.992 -0.488,-3.921 -0.925,-5.836 4.242,-0.234 8.156,-1.625 11.332,-4.382 4.226,-3.676 6.789,-9.184 7.218,-15.504 0.02,-0.289 0.032,-0.578 0.032,-0.864 0,-0.843 -0.368,-1.496 -0.516,-2.281 3.977,-0.379 7.785,-1.758 10.879,-4.453 4.058,-3.527 6.496,-8.469 6.867,-13.906 0.004,-0.11 0.004,-0.215 0.008,-0.328 3.488,1.582 7.195,3.101 11.09,4.57 0.371,0.887 0.668,1.582 0.664,1.559 0.613,5.156 -2.074,8.75 -7.02,9.375 l -4.277,-0.414 c -2.203,-0.211 -4.695,0.871 -5.676,2.855 -0.98,1.984 -1.015,4.277 0.488,5.898 l 1.207,1.301 c 1.45,1.528 2.938,3.102 3.082,4.364 0.594,4.964 -1.105,11.066 -7.308,11.878 L 393.141,763 c -2.207,-0.004 -4.442,1.324 -5.25,3.371 -0.805,2.043 -0.536,4.359 1.078,5.852 0.156,0.148 0.281,0.328 0.433,0.48" /><path
             id="path200"
             style="fill:#ffffff;fill-opacity:1;fill-rule:nonzero;stroke:none"
             d="m 401.406,794.957 c 1.989,-3.477 3.071,-7.418 3.071,-11.574 0,-0.996 -0.071,-2.004 -0.18,-3.02 -0.067,-0.527 -0.238,-1.015 -0.344,-1.527 20.813,5.223 39.52,8.625 55.692,10.086 14.175,1.277 28.128,1.805 41.496,1.598 13.871,-0.215 27.121,-1.219 39.328,-3.016 0,0 4.703,-0.656 4.722,-0.672 0.008,0 1.352,-0.008 1.352,-0.008 4.531,0.328 8.004,4.313 8.004,9.02 0,0.215 -0.008,0.426 -0.027,0.64 -0.211,3.176 -2.247,5.418 -4.77,6.848 -25.555,10.637 -69.805,12.199 -118.09,4.523 -0.879,-0.386 -1.832,-0.621 -2.851,-0.48 -0.055,0 -0.11,0.012 -0.157,0.016 -7.179,-1.192 -14.437,-2.586 -21.722,-4.184 -3.532,-0.773 -6.992,-1.59 -10.418,-2.426 0.722,-0.64 1.504,-1.207 2.152,-1.937 1.07,-1.199 1.953,-2.516 2.742,-3.887" /><path
             id="path202"
             style="fill:#ffffff;fill-opacity:1;fill-rule:nonzero;stroke:none"
             d="m 581.434,663.105 c 0,0 0.437,3.036 0.461,3.196 0.75,4.183 1.96,7.722 3.656,12.082 1.859,4.73 4.191,9.097 6.883,13.082 -4.922,-0.785 -9.793,-0.762 -14.563,0.226 -0.426,0.008 -5.996,0.161 -5.996,0.161 0,0 -9.145,0.214 -9.145,0.226 -14.171,-1.543 -25.644,-6.308 -27.89,-11.601 -0.192,-0.457 -0.449,-0.879 -0.754,-1.262 -0.805,-0.992 -0.887,-1.477 -1.059,-4.043 0,0 -0.164,-1.68 -0.281,-2.848 0.215,-0.883 1.27,-5.246 2.117,-8.742 0.094,-0.269 0.184,-0.535 0.27,-0.793 10.578,-3.512 14.101,-11.891 18.351,-22.32 l 1.301,-3.156 c 1.613,-3.895 1.758,-7.918 1.883,-11.461 l 0.145,-2.715 c 0.238,-0.477 0.492,-0.989 0.761,-1.528 6.004,6.039 13.895,14.891 16.66,19.852 5.508,9.844 6.036,13.539 7.2,21.644" /><path
             id="path204"
             style="fill:#ffffff;fill-opacity:1;fill-rule:nonzero;stroke:none"
             d="m 320.488,785.586 c 5.641,2.695 11.598,5.293 17.801,7.801 -0.101,-0.02 -0.215,0.008 -0.316,-0.012 0,0 0.269,0.059 0.625,0.133 16.203,6.527 34.187,12.344 53.476,17.144 -28.961,1.036 -53.64,-2.144 -70.761,-9.293 -2.563,-1.421 -4.629,-3.675 -4.848,-6.882 -0.02,-0.325 -0.039,-0.715 -0.039,-1.137 0,-2.559 0.617,-6.461 4.062,-7.754" /><path
             id="path206"
             style="fill:#ffffff;fill-opacity:1;fill-rule:nonzero;stroke:none"
             d="m 576.035,562.961 c 1.192,-0.113 3.352,-0.125 4.617,1.121 0.336,0.336 0.297,1.223 0.516,1.746 -1.086,-0.355 -2.188,-0.683 -3.469,-0.59 -4.629,0.317 -8.238,2.02 -10.719,5.067 -2.566,3.14 -3.816,7.5 -3.816,13.445 0,2.184 0.191,4.613 0.527,7.246 -1.234,-0.473 -2.503,-0.773 -3.816,-0.894 -0.695,-0.133 -1.406,-0.227 -2.133,-0.184 l -0.789,-0.051 c 1.07,-3.344 2.238,-6.812 3.582,-10.117 0.195,-0.469 0.418,-0.914 0.613,-1.371 0.512,-1.18 1.024,-2.352 1.582,-3.457 0.797,-1.539 1.641,-3.004 2.555,-4.344 0.047,-0.07 0.09,-0.16 0.133,-0.23 2.961,-4.278 6.199,-6.649 9.902,-7.254 0.055,-0.008 0.715,-0.133 0.715,-0.133" /><path
             id="path208"
             style="fill:#ffffff;fill-opacity:1;fill-rule:nonzero;stroke:none"
             d="m 561.582,601.93 c 0.727,0.636 1.297,1.316 1.621,1.785 0.008,0.008 0.024,0.031 0.031,0.047 0,0.004 0.012,0.004 0.012,0.004 0.391,0.582 0.625,1.218 0.914,1.839 -0.816,-0.199 -1.621,-0.308 -2.394,-0.292 0,-0.106 0.058,-0.215 0.058,-0.325 0,-0.297 -0.058,-0.621 -0.094,-0.933 -0.027,-0.696 -0.058,-1.407 -0.148,-2.125" /><path
             id="path210"
             style="fill:#ffffff;fill-opacity:1;fill-rule:nonzero;stroke:none"
             d="m 317.609,590.359 c -0.281,-0.019 0.282,-0.027 0,0 v 0" /><path
             id="path212"
             style="fill:#ffffff;fill-opacity:1;fill-rule:nonzero;stroke:none"
             d="m 550.602,600.984 -0.024,-0.05 c 0,-0.008 -0.008,-0.016 -0.008,-0.02 0,-0.008 0.012,0.008 0.032,0.07" /><path
             id="path214"
             style="fill:#ffffff;fill-opacity:1;fill-rule:nonzero;stroke:none"
             d="m 405.828,519.332 -2.336,-0.527 c 1.692,2.273 2.738,5.074 2.738,8.156 0,2.102 -0.503,4.059 -1.335,5.828 1.023,-0.398 1.972,-0.809 2.8,-1.254 0.715,-0.586 1.422,-1.23 2.114,-2.023 2.55,-2.914 3.711,-5.645 4.386,-8.946 -0.004,-0.257 -0.062,-0.5 -0.074,-0.75 -3.355,0.567 -5.984,0.2 -8.293,-0.484 z m -9.07,7.828 c -0.914,0 -1.668,0.789 -1.668,1.774 0,0.976 0.754,1.765 1.668,1.765 0.926,0 1.676,-0.789 1.676,-1.765 0,-0.985 -0.75,-1.774 -1.676,-1.774" /><path
             id="path216"
             style="fill:#ffffff;fill-opacity:1;fill-rule:nonzero;stroke:none"
             d="m 381.473,532.926 c -0.223,-0.121 -0.5,-0.242 -0.7,-0.367 -1.039,-0.852 -2.011,-1.86 -3.265,-3.172 l -2.344,-3.696 c -0.125,-0.242 -0.25,-0.464 -0.375,-0.707 -0.187,-0.675 -0.363,-1.355 -0.476,-2.132 0.992,-0.879 3.667,-2.59 4.98,-3.418 0.887,-0.559 2.383,-0.981 4.043,-1.293 -2.02,2.367 -3.281,5.433 -3.281,8.82 0,2.156 0.539,4.156 1.418,5.965" /><path
             id="path218"
             style="fill:#ffffff;fill-opacity:1;fill-rule:nonzero;stroke:none"
             d="m 396.758,530.699 c -0.914,0 -1.668,-0.789 -1.668,-1.765 0,-0.985 0.754,-1.774 1.668,-1.774 0.926,0 1.676,0.789 1.676,1.774 0,0.976 -0.75,1.765 -1.676,1.765" /><path
             id="path220"
             style="fill:#ffffff;fill-opacity:1;fill-rule:nonzero;stroke:none"
             d="m 414.195,520.566 c -0.675,3.301 -1.836,6.032 -4.386,8.946 -0.692,0.793 -1.399,1.437 -2.114,2.023 -0.828,0.445 -1.777,0.856 -2.8,1.254 0.832,-1.769 1.335,-3.726 1.335,-5.828 0,-3.082 -1.046,-5.883 -2.738,-8.156 l 2.336,0.527 c 2.309,0.684 4.938,1.051 8.293,0.484 0.012,0.25 0.07,0.493 0.074,0.75" /><path
             id="path222"
             style="fill:#ffffff;fill-opacity:1;fill-rule:nonzero;stroke:none"
             d="m 504.66,516.23 c -1.769,-0.792 -3.265,-1.101 -4.832,-1.226 2.926,2.473 4.84,6.18 4.84,10.371 0,1.707 -0.344,3.324 -0.91,4.836 1.082,-0.742 2.156,-1.606 3.359,-2.734 1.692,-1.586 2.535,-4.192 3.067,-6.164 0.082,-0.579 0.175,-1.149 0.211,-1.766 -1.508,-0.871 -5.735,-3.317 -5.735,-3.317 z m -9.019,8.911 c -0.922,0 -1.672,0.789 -1.672,1.769 0,0.977 0.75,1.774 1.672,1.774 0.925,0 1.675,-0.797 1.675,-1.774 0,-0.98 -0.75,-1.769 -1.675,-1.769 z m -14.707,-7.707 -3.114,0.816 c -1.8,0.582 -3.75,0.934 -6.457,0.59 0.371,2.918 1.094,5.32 2.895,8.176 0.371,0.582 0.773,1.007 1.16,1.484 l 2.016,1.664 c 1.089,0.934 2.007,1.582 2.968,2.117 -1.187,-2.023 -1.91,-4.367 -1.91,-6.906 0,-2.996 0.985,-5.734 2.598,-7.977 l -0.156,0.036" /><path
             id="path224"
             style="fill:#ffffff;fill-opacity:1;fill-rule:nonzero;stroke:none"
             d="m 480.402,532.281 c -0.961,-0.535 -1.879,-1.183 -2.968,-2.117 l -2.016,-1.664 c -0.387,-0.477 -0.789,-0.902 -1.16,-1.484 -1.801,-2.856 -2.524,-5.258 -2.895,-8.176 2.707,0.344 4.657,-0.008 6.457,-0.59 l 3.114,-0.816 0.156,-0.036 c -1.613,2.243 -2.598,4.981 -2.598,7.977 0,2.539 0.723,4.883 1.91,6.906" /><path
             id="path226"
             style="fill:#ffffff;fill-opacity:1;fill-rule:nonzero;stroke:none"
             d="m 495.641,528.684 c -0.922,0 -1.672,-0.797 -1.672,-1.774 0,-0.98 0.75,-1.769 1.672,-1.769 0.925,0 1.675,0.789 1.675,1.769 0,0.977 -0.75,1.774 -1.675,1.774" /><path
             id="path228"
             style="fill:#ffffff;fill-opacity:1;fill-rule:nonzero;stroke:none"
             d="m 507.117,527.477 c -1.203,1.128 -2.277,1.992 -3.359,2.734 0.566,-1.512 0.91,-3.129 0.91,-4.836 0,-4.191 -1.914,-7.898 -4.84,-10.371 1.567,0.125 3.063,0.434 4.832,1.226 0,0 4.227,2.446 5.735,3.317 -0.036,0.617 -0.129,1.187 -0.211,1.766 -0.532,1.972 -1.375,4.578 -3.067,6.164" /><path
             id="path230"
             style="fill:#ffffff;fill-opacity:1;fill-rule:nonzero;stroke:none"
             d="m 515.648,519.5 -1.101,-0.855 c 0,-0.051 0.012,-0.098 0.012,-0.145 l 0.113,-1.086 -8.379,-4.836 c -3.93,-1.754 -6.93,-1.703 -10.406,-1.64 0,0 -2.168,0.027 -2.176,0.027 l -8.5,1.379 -4.93,1.152 -3.683,0.953 c -2.121,0.676 -3.516,1.125 -7.012,0.074 l -2.668,-0.816 0.09,2.789 c 0.035,1.035 0.133,1.938 0.234,2.836 l -3.597,-5.137 -0.614,3.055 c -0.504,2.547 -0.511,4.254 -0.023,7.039 0.625,3.547 2.621,5.363 4.726,7.293 l 1.606,1.504 c 3.078,3.039 5.582,4.102 9.043,5.391 5.48,2.027 9.117,1.953 14.937,1.836 3.91,-0.075 6.153,-0.594 10.008,-1.813 4.52,-1.434 6.656,-2.289 10.07,-7.57 1.891,-2.926 4.184,-9.934 2.25,-11.43 z m -25.601,-12.801 c -0.406,-1.027 -1.469,-1.57 -2.496,-1.168 l -3.477,1.356 -5.445,1.672 -7.387,-0.246 -2.195,-0.301 c -1.098,-0.149 -2.086,0.625 -2.231,1.722 -0.148,1.094 0.645,2.102 1.739,2.246 l 2.133,0.29 8.472,0.253 6.473,-1.96 3.187,-1.243 c 1.032,-0.402 1.629,-1.597 1.227,-2.621 z m -10.492,-73.676 c -1.254,-1.804 -3.617,-2.699 -6.184,-2.32 -1.625,0.242 -3.023,0.981 -4.082,1.985 l -0.68,-0.797 c -2.812,-2.184 -6.75,-3.02 -11.386,-2.418 0,0 -4.235,0.629 -5.168,0.773 -0.399,-0.094 -0.782,-0.074 -1.102,0.016 0,0 -0.383,0.117 -0.754,0.238 -1.301,0.359 -3.441,0.965 -3.441,0.965 -0.949,0.152 -1.613,-0.18 -2.711,-0.777 l -3.692,-1.215 -4.042,0.851 -2.782,0.707 -5.515,-0.558 -4.5,-0.649 -1.371,-0.101 c -2.993,-0.25 -5.352,-0.438 -8.594,0.914 -2.071,0.863 -3.371,1.871 -4.582,3.261 -1.778,-1.367 -4.102,-1.964 -6.614,-1.64 -0.984,0 -1.972,0.211 -2.96,0.637 l 1.046,2.449 h 0.008 c 0.606,-0.262 1.262,-0.293 1.906,-0.403 1.372,0 2.766,0.704 4.305,2.043 l -1,1.434 1.754,-0.48 c 0.492,0.738 0.766,1.566 0.766,2.609 0,0.801 -0.094,1.719 -0.219,2.762 l 2.594,0.55 0.425,-1.257 c 0.614,-1.77 1.196,-3.602 0.333,-5.743 l 2.949,-0.812 c 2.277,-0.34 3.48,-0.422 5.468,0.215 l 3.442,2.39 1.445,1.371 1.485,1.457 3.207,2.653 4.914,1.683 2.957,-0.265 1.343,-0.242 1.2,-0.282 c 0,0 0.867,-0.132 0.875,-0.132 l 3.136,0.851 c 0,0 -0.046,-0.101 -0.058,-0.117 0.07,0.027 0.121,0.055 0.191,0.07 -0.101,0.024 -0.16,0.141 -0.258,0.133 0,0 0.422,0.039 0.836,0.082 1.66,0.348 3.7,0.434 3.868,0.414 l 1.328,-0.082 c 1.257,-0.023 2.691,-0.055 4.035,-1.351 l 1.683,-1.817 4.192,-4.047 4.785,-2.304 c 1.156,-0.325 2.062,-0.395 3.023,-0.317 -0.203,0.906 -0.328,1.75 -0.328,2.473 0,2.406 1.028,3.742 2.145,4.594 0.012,0.019 0,0.027 0.012,0.039 l 0.015,-0.012 c 0.133,0.098 0.231,0.285 0.36,0.367 l 1.8,-1.894 c -0.867,-1.227 -0.472,-2.543 0.477,-4.676 l 1.808,0.441 -1.277,-1.484 c 0.688,-1.133 1.953,-1.262 4.531,-1.176 l 4.125,0.082 z m -25.227,-14.261 c -1.738,-1.289 -2.648,-2.246 -2.648,-3.719 0,-0.094 0,-0.18 0.004,-0.262 l 1.148,-5.273 0.719,-3.067 -3.793,2.161 -3.91,1.711 -3.028,-0.079 -2.566,-0.246 c -6.848,-0.062 -9.727,2.625 -12.508,5.227 l -1.848,1.656 -0.738,0.688 0.289,0.836 c 0.375,1.085 1.176,1.046 3.848,0.933 l 1.363,-0.051 5.297,-0.914 3.336,-0.781 c 4.523,-0.711 5.172,-0.519 7.574,0.195 l 1.145,0.34 c 1.945,0.555 2.886,1.289 4.679,2.742 0.016,0.012 0.028,0.032 0.043,0.043 l 1.641,-2.105 c -0.016,-0.012 -0.027,-0.02 -0.047,-0.035 z m -58.242,88.988 c -1.082,-0.258 -2.156,0.395 -2.422,1.469 -0.254,1.074 0.395,2.156 1.469,2.418 l 7.203,1.758 5.012,0.753 2.601,0.278 c 1.09,0.117 2.137,-0.672 2.25,-1.77 0,-0.019 -0.004,-0.035 -0.004,-0.051 0.535,1.313 0.942,2.477 1.27,3.583 -2.559,0.464 -4.301,-0.04 -6.504,-0.692 l -5.305,-1.172 c 0,0 -2.941,-0.25 -5.566,-0.461 -0.945,-0.226 -1.926,-0.375 -2.945,-0.375 -0.25,0 -0.481,0.067 -0.727,0.071 -0.043,0 -0.141,-0.004 -0.168,-0.004 -0.105,-0.024 -0.234,-0.043 -0.352,-0.059 0,-0.027 -0.003,-0.215 -0.003,-0.215 l -1.028,0.012 c -0.027,0 -0.074,0.012 -0.109,0.012 -3.973,-0.012 -11.305,1.308 -13.59,2.746 -4.621,2.906 -6.453,4.199 -6.93,5.496 -0.371,0.043 -0.746,0.141 -1.074,0.41 -0.363,0.289 -0.777,0.848 -0.687,1.852 l -0.032,-0.118 2.09,6.907 c 1.215,3.039 2.863,4.465 4.953,6.261 3.524,3.043 6.153,4.325 10.414,5.082 4.836,0.875 7.793,0.899 12.657,0.129 2.484,-0.402 4.523,-1.574 6.324,-2.605 2.168,-1.246 3.879,-2.235 5.805,-1.762 0,0 1.148,0.481 1.156,0.481 l 0.019,0.406 c 0,0.566 0.012,1.746 1.274,2.461 2.152,1.195 5.316,-3.711 6.578,-5.879 l 1.793,-4.391 0.457,-1.484 0.215,-0.672 c 0,0 1.14,-5.687 1.14,-5.691 0.016,-2.375 0.032,-4.094 -0.992,-6.551 l -3.062,-4.289 -2.977,-2.219 -2.082,-1.422 -0.816,-0.875 c -0.68,-0.836 -1.621,-1.98 -3.371,-1.785 -1.165,0.137 -1.547,0.801 -1.668,1.187 -0.375,1.165 0.578,2.036 1.777,3.137 l 0.309,0.344 -2.743,-0.293 -4.406,-0.656 z m -21.965,51.543 c 6.738,1.5 10.875,1.754 17.707,1.082 l 2.992,-0.207 6.262,-0.816 6.941,-2.383 3.7,-1.43 c 1.027,-0.406 1.582,-1.578 1.183,-2.609 -0.398,-1.028 -1.511,-1.559 -2.539,-1.16 l -3.847,1.492 -6.418,2.215 -5.489,0.703 -3.175,0.218 c -6.422,0.629 -10.114,0.407 -16.442,-1.011 -1.074,-0.239 -2.144,0.437 -2.387,1.515 -0.242,1.075 0.434,2.145 1.512,2.391 z m 52.75,-69.844 c 0.266,-0.293 0.371,-0.597 0.371,-0.898 0,-0.516 -0.359,-0.918 -0.637,-1.293 -0.074,-0.102 -0.093,-0.258 -0.156,-0.34 l -0.011,0.008 c -0.02,-0.02 -0.028,-0.078 -0.051,-0.086 0,0 -0.082,0.058 -0.086,0.066 -0.821,-1.008 -5.094,-6.336 -5.356,-6.672 0,0 -1.468,-2.761 -1.793,-3.375 1.387,-2.566 1.793,-2.796 3.914,-2.714 l 1.383,0.441 1.699,0.805 c 1.786,0.855 3.332,1.597 5.77,1.484 l 4.031,-1.52 2.496,-1.152 0.868,-0.156 4.675,-0.27 2.43,0.817 3.641,1.043 4.031,-1.199 1.922,-0.895 0.879,-0.238 3.507,-1.539 0.786,-0.504 2.168,-2.258 c 0,0 -0.356,-1.684 -0.356,-1.688 -1.121,-1.632 -4.258,-2.093 -7.578,-2.582 l -1.066,-0.16 -4.2,-0.347 -3.136,-0.215 -2.86,-1.106 c -1.476,-0.793 -3.14,-1.703 -5.41,-1.011 l -2.648,1.625 -1.575,1.07 c -1.097,0.414 -2.074,0.113 -3.316,-0.262 -1.414,-0.433 -3.172,-0.969 -5.16,-0.101 -2.738,1.195 -4.438,2.265 -6.113,4.808 l -1.34,1.762 c -1.137,1.359 -2.391,2.871 -2.391,4.992 0,0.316 0.055,0.656 0.113,1 -0.086,0.316 -0.226,0.617 -0.226,0.961 0,4.469 7.18,10.723 8.383,11.574 0.375,0.266 1.519,1.067 2.398,0.125 z m 44.305,65.051 2.66,1.438 4.926,2.515 c 6.636,2.926 11.109,2.926 17.851,2.676 3.723,-0.141 6.285,-1 9.004,-1.902 l 4.574,-1.379 c 1.051,-0.317 1.758,-1.457 1.438,-2.52 -0.316,-1.055 -1.328,-1.68 -2.387,-1.363 l -4.894,1.469 c -2.543,0.851 -4.735,1.582 -7.875,1.699 -6.368,0.234 -10.25,0.242 -16.098,-2.344 l -4.598,-2.34 -2.757,-1.492 c -0.969,-0.527 -2.153,-0.152 -2.684,0.824 -0.523,0.965 -0.133,2.196 0.84,2.719 z m 57.957,-47.207 c 1.531,0.676 3.508,0.207 5.012,-0.645 0.519,0.524 0.746,1.489 0.746,2.676 0,2.094 -0.653,4.797 -1.418,6.571 l -4.266,6.007 c -3.68,4.375 -7.758,9.215 -7.758,20.504 0,2.66 0.231,5.68 0.739,9.145 l 0.523,1.472 c -5.106,5.954 -3.863,15.711 -3.52,17.747 0.286,1.691 1.379,3.113 2.907,3.875 1.523,0.753 3.347,0.738 4.855,-0.055 0.383,-0.199 0.809,-0.262 1.242,-0.375 0,0 0,0.008 0,0.012 -0.441,0.171 -0.925,0.363 -0.925,0.363 -2.036,0.707 -5.227,1.887 -7.84,4.976 l -0.293,-0.187 c -5.446,-2.805 -14.012,-2.813 -19.852,2.613 -9.195,8.555 -7.527,18.418 -5.367,22.442 0.117,0.222 0.336,0.355 0.48,0.55 -4.894,1.121 -10.398,3.567 -15.07,8.637 -4.351,-5.387 -11.898,-8.59 -17.75,-8.59 -10.375,0 -18.726,6.012 -22.816,15.321 -1.063,-0.887 -2.192,-1.649 -3.383,-2.332 -4.41,-7.684 -12.012,-12.098 -21.184,-12.098 -4.343,0 -9.222,2.07 -13.203,5.41 -7.183,-4.707 -14.926,-5.203 -19.34,-4.965 -0.543,0.028 -1.113,0.11 -1.683,0.176 0.59,-0.449 1.101,-0.996 1.465,-1.664 2.164,-4.02 3.82,-13.891 -5.375,-22.438 -5.844,-5.433 -14.414,-5.421 -19.864,-2.613 l -0.281,0.176 c -2.617,-3.082 -5.809,-4.254 -7.844,-4.969 0,0 -0.476,-0.195 -0.922,-0.363 v -0.012 c 0.442,0.11 0.856,0.18 1.239,0.375 1.515,0.785 3.343,0.813 4.867,0.055 1.527,-0.766 2.617,-2.195 2.898,-3.887 0.153,-0.887 1.207,-7.941 -1.125,-13.824 0.551,-1.531 1.137,-3.164 1.141,-3.164 2.687,-18.121 -2.465,-24.246 -7.02,-29.645 0,0 -4.128,-5.82 -4.136,-5.761 -0.852,-1.942 -1.539,-4.727 -1.539,-6.852 0,-1.176 0.226,-2.129 0.742,-2.644 1.5,0.855 3.484,1.32 5.015,0.648 1.704,-0.75 3.258,-2.012 3.508,-3.859 0.137,-1.028 1.176,-10.188 -4.457,-15.887 -0.25,-0.246 -0.531,-0.504 -0.824,-0.762 -1.496,-19.265 1.266,-32.172 11,-51.672 5.516,-11.047 9.082,-17.683 18.164,-25.363 8.852,-7.473 13.137,-9.215 19.617,-11.859 l 7.692,-3.293 11.406,-5.883 c 4.223,-2.328 7.867,-4.328 12.019,-5.817 0.032,-0.007 0.063,-0.023 0.094,-0.031 4.188,-1.488 8.91,-2.433 15.27,-2.637 0.129,-0.011 0.238,0.004 0.375,0 l -3.332,0.696 -5.606,1.054 c -1.082,0.204 -2.164,1.282 -1.961,2.36 0.2,1.086 0.879,1.832 1.961,1.637 l 6.758,-1.223 3.484,-0.77 4.165,0.797 5.824,1.196 c 1.082,0.222 1.886,-0.508 2.109,-1.59 0.223,-1.082 -0.715,-2.172 -1.793,-2.399 l -5.039,-1.047 -3.719,-0.66 c 11.973,0.371 18.965,5.071 29.024,11.973 l 8.281,5.551 c 6.48,4.14 9.711,6.57 15.035,11.32 6.156,5.504 10.235,9.582 14.449,15.457 0.25,0.555 0.59,1.047 1.028,1.484 1.207,1.754 2.433,3.649 3.742,5.817 10,16.578 13.773,35.281 15.75,50.644 -1.324,0.711 -2.379,1.547 -3.18,2.356 -5.629,5.699 -4.586,14.855 -4.449,15.883 0.242,1.843 1.805,3.113 3.508,3.859" /></g></g><path
         id="path232"
         style="fill:#ffffff;fill-opacity:1;fill-rule:nonzero;stroke:none"
         d="M 1297.24,809.535 V 674.309 c 0,-61.813 -36.35,-85.715 -97.19,-85.715 -63.71,0 -92.87,23.902 -92.87,76.496 v 144.445 l -31.67,12.641 v 8.875 h 99.35 v -8.875 l -32.04,-12.641 V 667.816 c 0,-42.339 19.79,-61.808 63.35,-61.808 46.07,0 66.59,18.785 66.59,60.101 v 143.426 l -31.67,12.641 v 8.875 h 88.18 v -8.875 l -32.03,-12.641" /><path
         id="path234"
         style="fill:#ffffff;fill-opacity:1;fill-rule:nonzero;stroke:none"
         d="M 1525.11,751.145 V 590.301 H 1510 l -116.27,143.765 v -121.57 l 29.52,-10.586 v -9.902 h -79.55 v 9.902 l 29.52,10.586 v 138.649 l -29.52,10.585 v 9.903 h 58.31 L 1504.6,645.277 v 105.868 l -29.51,10.585 v 9.903 h 79.55 v -9.903 l -29.53,-10.585" /><path
         id="path236"
         style="fill:#ffffff;fill-opacity:1;fill-rule:nonzero;stroke:none"
         d="m 1585.25,592.008 v 9.902 l 29.51,10.586 v 138.649 l -29.51,10.585 v 9.903 h 92.87 V 761.73 L 1648.6,751.145 V 612.496 l 29.52,-10.586 v -9.902 h -92.87" /><path
         id="path238"
         style="fill:#ffffff;fill-opacity:1;fill-rule:nonzero;stroke:none"
         d="m 1874.67,751.145 -72.71,-160.844 h -18 l -65.52,160.844 -24.11,10.585 v 9.903 h 83.51 v -9.903 l -22.68,-10.585 46.44,-123.961 51.11,123.961 -22.31,10.585 v 9.903 h 69.11 v -9.903 l -24.84,-10.585" /><path
         id="path240"
         style="fill:#ffffff;fill-opacity:1;fill-rule:nonzero;stroke:none"
         d="m 2066.19,592.008 h -150.47 v 9.902 l 29.52,10.586 v 138.988 l -29.52,10.246 v 9.903 h 149.38 v -43.028 h -11.51 l -13.68,28.688 h -60.83 v -66.594 h 49.67 l 10.08,23.223 h 11.52 v -60.785 h -11.52 l -10.08,23.222 h -49.67 v -68.3 h 61.9 l 18,30.394 h 11.53 l -4.32,-46.445" /><path
         id="path242"
         style="fill:#ffffff;fill-opacity:1;fill-rule:nonzero;stroke:none"
         d="m 2189.31,757.293 h -21.24 v -65.566 h 20.88 c 21.24,0 34.2,11.265 34.2,33.804 0,22.535 -11.16,31.762 -33.84,31.762 z m 55.79,-165.285 -66.23,85.371 h -10.8 v -64.883 l 28.08,-10.586 v -9.902 h -91.43 v 9.902 l 29.52,10.586 v 138.988 l -29.52,10.246 v 9.903 h 91.07 c 30.24,0 63,-6.488 63,-42.344 0,-26.297 -15.84,-41.324 -45,-47.125 l 56.51,-69.668 22.32,-10.586 v -9.902 h -47.52" /><path
         id="path244"
         style="fill:#ffffff;fill-opacity:1;fill-rule:nonzero;stroke:none"
         d="m 2372.56,588.594 c -13.32,0 -30.25,2.73 -58.32,8.879 v 44.05 h 13.32 l 14.04,-35.515 c 11.87,-2.391 16.19,-3.074 24.47,-3.074 24.84,0 38.16,11.613 38.16,30.734 0,12.297 -5.04,18.102 -24.48,29.711 l -29.16,17.418 c -19.79,11.609 -34.55,21.855 -34.55,45.758 0,29.711 24.11,48.832 61.56,48.832 18.71,0 37.07,-3.071 54.7,-6.145 v -44.39 h -12.96 l -14.39,35.168 c -10.08,1.367 -14.41,1.027 -20.52,1.027 -25.19,0 -38.51,-10.246 -38.51,-26.293 0,-14.348 12.23,-19.809 23.39,-26.637 l 31.32,-18.785 c 21.96,-13.316 39.23,-22.195 39.23,-49.859 0,-31.075 -26.28,-50.879 -67.3,-50.879" /><path
         id="path246"
         style="fill:#ffffff;fill-opacity:1;fill-rule:nonzero;stroke:none"
         d="m 2477.67,592.008 v 9.902 l 29.52,10.586 v 138.649 l -29.52,10.585 v 9.903 h 92.87 v -9.903 l -29.51,-10.585 V 612.496 l 29.51,-10.586 v -9.902 h -92.87" /><path
         id="path248"
         style="fill:#ffffff;fill-opacity:1;fill-rule:nonzero;stroke:none"
         d="m 2749.46,724.852 -12.96,30.73 h -43.19 V 612.496 l 31.31,-10.586 v -9.902 h -96.47 v 9.902 l 31.32,10.586 v 143.086 h -41.03 l -14.41,-30.73 h -11.87 v 46.781 h 168.81 v -46.781 h -11.51" /><path
         id="path250"
         style="fill:#ffffff;fill-opacity:1;fill-rule:nonzero;stroke:none"
         d="m 2849.19,739.531 -27.36,-64.883 h 51.84 c -8.28,21.516 -15.84,43.372 -24.48,64.883 z m 25.2,54.981 -72.35,51.566 h 51.83 l 39.23,-51.566 z m -1.08,-202.504 v 9.902 l 22.67,10.586 -17.99,47.813 h -62.28 l -19.07,-47.813 22.31,-10.586 v -9.902 h -70.54 v 9.902 l 25.91,10.586 73.79,160.844 h 21.59 l 64.08,-160.844 25.91,-10.586 v -9.902 h -86.38" /><path
         id="path252"
         style="fill:#ffffff;fill-opacity:1;fill-rule:nonzero;stroke:none"
         d="m 1187.09,376.188 h -30.23 V 228.656 h 26.63 c 48.96,0 70.92,31.418 70.92,75.813 0,41.672 -20.16,71.719 -67.32,71.719 z m -1.08,-163.575 h -92.51 v 9.903 l 29.52,10.586 v 138.64 l -29.52,10.586 v 9.902 h 97.19 c 59.4,0 101.15,-24.921 101.15,-85.71 0,-63.172 -43.56,-93.907 -105.83,-93.907" /><path
         id="path254"
         style="fill:#ffffff;fill-opacity:1;fill-rule:nonzero;stroke:none"
         d="m 1324.26,212.613 v 9.903 l 29.52,10.586 v 138.64 l -29.52,10.586 v 9.902 h 92.87 v -9.902 l -29.52,-10.586 v -138.64 l 29.52,-10.586 v -9.903 h -92.87" /><path
         id="path256"
         style="fill:#ffffff;fill-opacity:1;fill-rule:nonzero;stroke:none"
         d="m 1625.93,437.309 h -25.92 V 328.031 h 17.28 c 39.23,0 62.27,17.422 62.27,55.664 0,33.813 -17.28,53.614 -53.63,53.614 z m 63.71,-106.539 c -15.48,-10.93 -37.07,-17.075 -63.35,-17.075 h -26.28 v -79.91 l 39.24,-12.297 v -8.875 h -106.91 v 8.875 l 32.03,12.297 v 196.36 l -32.03,12.632 v 8.879 h 95.38 c 33.13,0 52.2,-5.129 67.68,-18.097 14.39,-11.954 21.6,-28.692 21.6,-49.52 0,-22.539 -9.73,-41.316 -27.36,-53.269" /><path
         id="path258"
         style="fill:#ffffff;fill-opacity:1;fill-rule:nonzero;stroke:none"
         d="m 1738.61,212.613 v 9.903 l 29.52,10.586 v 138.64 l -29.52,10.586 v 9.902 h 92.87 v -9.902 l -29.51,-10.586 v -138.64 l 29.51,-10.586 v -9.903 h -92.87" /><path
         id="path260"
         style="fill:#ffffff;fill-opacity:1;fill-rule:nonzero;stroke:none"
         d="m 1927.6,209.195 c -13.32,0 -30.23,2.735 -58.31,8.875 v 44.055 h 13.32 l 14.04,-35.52 c 11.87,-2.378 16.2,-3.062 24.48,-3.062 24.83,0 38.15,11.609 38.15,30.73 0,12.293 -5.03,18.094 -24.48,29.707 l -29.15,17.422 c -19.8,11.614 -34.56,21.856 -34.56,45.75 0,29.719 24.12,48.84 61.55,48.84 18.72,0 37.08,-3.074 54.72,-6.14 v -44.399 h -12.96 l -14.4,35.168 c -10.08,1.367 -14.4,1.024 -20.52,1.024 -25.2,0 -38.52,-10.243 -38.52,-26.29 0,-14.343 12.25,-19.8 23.4,-26.636 l 31.32,-18.781 c 21.95,-13.321 39.24,-22.2 39.24,-49.864 0,-31.074 -26.28,-50.879 -67.32,-50.879" /><path
         id="path262"
         style="fill:#ffffff;fill-opacity:1;fill-rule:nonzero;stroke:none"
         d="m 2102.92,360.133 -27.36,-64.883 h 51.84 c -8.28,21.516 -15.84,43.367 -24.48,64.883 z m 24.12,-147.52 v 9.903 l 22.67,10.586 -17.99,47.812 h -62.28 l -19.07,-47.812 22.31,-10.586 v -9.903 h -70.54 v 9.903 l 25.91,10.586 73.79,160.839 h 21.6 l 64.07,-160.839 25.92,-10.586 v -9.903 h -86.39" /><path
         id="path264"
         style="fill:#ffffff;fill-opacity:1;fill-rule:nonzero;stroke:none"
         d="M 1035.39,1002.41 889.016,1.44922" /><path
         id="path266"
         style="fill:none;stroke:#ffffff;stroke-width:20;stroke-linecap:butt;stroke-linejoin:miter;stroke-miterlimit:10;stroke-dasharray:none;stroke-opacity:1"
         d="M 1035.39,1002.41 889.016,1.44922" /></g></g></svg>